<svg width="324" height="158" viewBox="0 0 324 158" fill="none">
<path d="M75.2731 72.5723C79.0382 72.8131 81.9493 73.5507 84.0059 74.785C86.0941 76.0194 87.6129 77.5548 88.5622 79.3913C89.5431 81.1977 90.1283 83.2149 90.3183 85.4429C90.5396 87.6406 90.6504 89.8534 90.6504 92.0814C90.6504 95.2726 90.7453 97.9521 90.9351 100.12C91.125 102.287 91.4255 104.019 91.837 105.313C92.2799 106.608 92.8495 107.541 93.5455 108.113C94.2733 108.655 95.1434 108.926 96.1559 108.926C97.2 108.926 98.0226 108.655 98.6238 108.113C99.2566 107.541 99.7471 106.819 100.095 105.946C100.475 105.072 100.728 104.094 100.855 103.01C100.981 101.896 101.044 100.812 101.044 99.7585V95.7844H104.129V99.6683C104.129 103.311 103.449 106.231 102.089 108.429C100.728 110.597 98.2757 111.681 94.7319 111.681C92.5806 111.681 90.7769 111.229 89.3216 110.326C87.866 109.453 86.6953 108.188 85.8094 106.533C84.955 104.847 84.3222 102.844 83.911 100.526C83.5313 98.2081 83.3413 95.6339 83.3413 92.804C83.3413 90.0342 83.2781 87.49 83.1516 85.1718C83.025 82.8536 82.5504 80.8817 81.7278 79.2559C80.9368 77.6302 79.687 76.3506 77.9783 75.4172C76.3014 74.4839 73.9125 74.0174 70.8118 74.0174H68.8658V71.2626C73.3271 71.2023 76.8235 69.8024 79.3547 67.0627C81.886 64.3229 83.1516 60.665 83.1516 56.0888C83.1516 53.5598 82.7245 51.3619 81.8702 49.4954C81.0474 47.5986 79.8768 46.0331 78.358 44.7987C76.8393 43.5644 75.0358 42.601 72.9474 41.9085C70.8592 41.1859 68.6285 40.7343 66.2556 40.5538C65.3379 42.2095 64.7368 44.302 64.4519 46.831C64.1672 49.3599 64.0249 52.5662 64.0249 56.4501C64.0249 60.1533 64.1198 63.9917 64.3096 67.9658C64.4995 71.9399 64.5943 76.3355 64.5943 81.1526C64.5943 90.9072 62.6958 98.4338 58.899 103.733C55.1021 109.031 48.9323 111.681 40.3893 111.681C37.4151 111.681 34.7097 111.199 32.2735 110.236C29.8372 109.272 27.7646 107.947 26.0561 106.262C24.3474 104.576 23.0186 102.544 22.0693 100.165C21.1202 97.7866 20.6455 95.1522 20.6455 92.262C20.6455 89.1008 21.1993 86.4213 22.3066 84.2234C23.4141 81.9956 24.8063 80.1892 26.4832 78.8042C28.1601 77.4194 29.9795 76.4259 31.9412 75.8238C33.9346 75.1914 35.8488 74.8754 37.6841 74.8754C39.9306 74.8754 41.9396 75.2064 43.7115 75.8689C45.5151 76.5011 47.0181 77.4044 48.2203 78.5784C49.4226 79.7526 50.3403 81.1075 50.9731 82.6428C51.6375 84.1783 51.9698 85.804 51.9698 87.5202C51.9698 88.7545 51.7641 90.0342 51.3528 91.3588C50.9731 92.6835 50.3561 93.8878 49.5018 94.9717C48.6792 96.0555 47.6033 96.9586 46.2745 97.6812C44.9455 98.3737 43.3794 98.7199 41.5757 98.7199C37.8738 98.7199 35.2952 97.6058 33.8396 95.378C32.3842 93.12 31.6564 90.3201 31.6564 86.9782H34.7413C34.7413 88.1524 34.8363 89.2813 35.0262 90.3652C35.216 91.449 35.5641 92.4124 36.0703 93.2554C36.6082 94.0684 37.3202 94.7308 38.2061 95.2426C39.092 95.7243 40.2153 95.9651 41.5757 95.9651C43.4426 95.9651 45.1195 95.3027 46.6066 93.978C48.0938 92.6533 48.8374 90.5008 48.8374 87.5202C48.8374 84.4492 47.7775 82.0407 45.6575 80.2946C43.5691 78.5183 40.9113 77.6302 37.6841 77.6302C35.9122 77.6302 34.2035 77.9011 32.5582 78.4429C30.9129 78.9549 29.4417 79.7979 28.1443 80.9719C26.8471 82.1461 25.7872 83.6666 24.9644 85.5331C24.1735 87.3697 23.778 89.6126 23.778 92.262C23.778 95.3931 24.3316 98.0274 25.4391 100.165C26.5781 102.303 28.0019 104.019 29.7106 105.313C31.4507 106.608 33.286 107.541 35.216 108.113C37.1778 108.655 38.9655 108.926 40.5792 108.926C44.4077 108.926 47.461 108.234 49.7391 106.849C52.0488 105.434 53.8049 103.597 55.0073 101.339C56.2096 99.0509 57.0005 96.4619 57.3802 93.5716C57.7917 90.6513 57.9972 87.6857 57.9972 84.6751C57.9972 81.3935 57.9025 77.7957 57.7125 73.8819C57.5544 69.968 57.4752 66.0692 57.4752 62.1853C57.4752 56.706 57.7283 52.2953 58.2346 48.9534C58.7724 45.5814 59.6901 42.7515 60.9874 40.4634C58.6458 40.6441 56.3361 41.0956 54.058 41.8181C51.8115 42.5106 49.7707 43.4741 47.9356 44.7084C46.132 45.9429 44.6766 47.4782 43.5691 49.3148C42.4934 51.1211 41.9556 53.1685 41.9556 55.4564C41.9556 57.5339 42.43 59.1295 43.3794 60.2434C44.3601 61.3575 45.6257 61.9144 47.1762 61.9144C48.4735 61.9144 49.5018 61.5531 50.2611 60.8305C51.0521 60.0779 51.4476 59.1145 51.4476 57.9403C51.4476 56.5855 50.9889 55.6672 50.0714 55.1855C49.1855 54.6737 48.2837 54.4179 47.366 54.4179V51.6631C49.4544 51.6631 51.1787 52.2051 52.5393 53.2887C53.8999 54.3425 54.5801 55.893 54.5801 57.9403C54.5801 59.9274 53.8683 61.5531 52.4443 62.8177C51.0205 64.0821 49.2644 64.7143 47.1762 64.7143C44.4551 64.7143 42.3827 63.8863 40.9589 62.2306C39.5349 60.5446 38.8231 58.3166 38.8231 55.5468C38.8231 52.6566 39.5349 50.1126 40.9589 47.9148C42.3827 45.7171 44.2495 43.8654 46.5592 42.3602C48.8689 40.8547 51.4636 39.7108 54.3427 38.9279C57.2221 38.115 60.1172 37.6785 63.0281 37.6182C64.5785 35.8721 66.4769 34.5324 68.7235 33.5991C70.97 32.6356 73.4221 32.1539 76.0799 32.1539V34.9087C75.1623 34.9087 73.9125 35.1195 72.3306 35.5409C70.7485 35.9322 69.3721 36.6851 68.2014 37.799C71.5552 38.0999 74.6087 38.7021 77.3613 39.6054C80.1141 40.4784 82.4556 41.6827 84.3856 43.2182C86.3472 44.7234 87.8502 46.5298 88.8943 48.6374C89.9386 50.7147 90.4606 53.0781 90.4606 55.7275C90.4606 57.3833 90.2075 59.1446 89.7012 61.0113C89.2266 62.8477 88.4038 64.5337 87.2332 66.0692C86.0625 67.6045 84.4964 68.8991 82.5346 69.9529C80.6045 71.0067 78.1841 71.5636 75.2731 71.6239V72.5723ZM106.55 91.3136C106.55 88.4836 106.882 85.8192 107.547 83.3203C108.243 80.8214 109.255 78.6687 110.584 76.8623C111.913 75.0259 113.558 73.5958 115.52 72.5723C117.513 71.5185 119.807 70.9917 122.402 70.9917C126.294 70.9917 129.378 72.1056 131.657 74.3334C133.966 76.5313 135.121 79.3613 135.121 82.8236C135.121 85.1718 134.678 87.2643 133.792 89.1008C132.938 90.9072 131.704 92.4277 130.09 93.662C128.477 94.8963 126.563 95.8297 124.348 96.4619C122.133 97.064 119.697 97.365 117.039 97.365H113.147C113.368 98.7199 113.669 100.075 114.049 101.429C114.428 102.784 114.966 104.019 115.662 105.133C116.39 106.216 117.339 107.12 118.51 107.842C119.681 108.565 121.136 108.926 122.876 108.926C124.901 108.926 126.547 108.52 127.812 107.707C129.078 106.894 130.075 105.855 130.802 104.591C131.562 103.326 132.084 101.911 132.369 100.346C132.653 98.78 132.796 97.2598 132.796 95.7844H135.928C135.928 97.8619 135.675 99.8639 135.169 101.791C134.694 103.687 133.919 105.388 132.843 106.894C131.767 108.369 130.375 109.528 128.667 110.371C126.958 111.244 124.87 111.681 122.402 111.681C117.276 111.681 113.353 110.01 110.631 106.668C107.91 103.296 106.55 98.1779 106.55 91.3136ZM112.862 94.5651H116.469C120.044 94.5651 122.987 93.6167 125.297 91.7201C127.638 89.7933 128.809 86.9782 128.809 83.2752C128.809 82.1611 128.714 81.0472 128.524 79.9333C128.334 78.7892 127.986 77.7506 127.48 76.8173C127.006 75.8839 126.325 75.1463 125.439 74.6045C124.585 74.0324 123.446 73.7463 122.022 73.7463C120.06 73.7463 118.478 74.3033 117.276 75.4172C116.105 76.5313 115.188 77.9462 114.523 79.6624C113.89 81.3484 113.447 83.245 113.194 85.3525C112.973 87.4299 112.862 89.4168 112.862 91.3136V94.5651ZM141.291 91.2234C141.291 88.3933 141.655 85.7288 142.383 83.2299C143.142 80.731 144.234 78.5936 145.658 76.8173C147.081 75.0109 148.806 73.5958 150.831 72.5723C152.888 71.5185 155.213 70.9917 157.808 70.9917C159.042 70.9917 160.26 71.1271 161.462 71.398C162.664 71.669 163.709 72.1206 164.594 72.7528C165.512 73.3549 166.24 74.1076 166.778 75.0109C167.347 75.914 167.632 77.013 167.632 78.3075C167.632 79.9033 167.11 81.3031 166.066 82.5074C165.053 83.7116 163.566 84.3138 161.605 84.3138C159.548 84.3138 158.061 83.7116 157.143 82.5074C156.226 81.3031 155.767 79.7376 155.767 77.8107H158.899C158.899 78.7441 159.089 79.6021 159.469 80.385C159.848 81.1376 160.592 81.5139 161.7 81.5139C162.49 81.5139 163.155 81.2881 163.693 80.8364C164.262 80.385 164.547 79.572 164.547 78.3978C164.547 76.8323 163.898 75.6731 162.601 74.9205C161.304 74.1378 159.706 73.7463 157.808 73.7463C154.58 73.7463 152.065 75.2367 150.261 78.2173C148.489 81.1677 147.603 85.5331 147.603 91.3136C147.603 93.1803 147.714 95.1372 147.936 97.1844C148.189 99.2016 148.664 101.098 149.36 102.875C150.087 104.621 151.1 106.066 152.397 107.21C153.694 108.354 155.435 108.926 157.618 108.926C159.516 108.926 161.067 108.505 162.269 107.662C163.503 106.819 164.484 105.75 165.211 104.455C165.939 103.161 166.445 101.746 166.73 100.21C167.015 98.6746 167.157 97.1994 167.157 95.7844H170.29C170.29 97.3199 170.084 99.0209 169.673 100.888C169.293 102.724 168.613 104.44 167.632 106.036C166.651 107.632 165.306 108.971 163.598 110.055C161.889 111.139 159.738 111.681 157.143 111.681C154.359 111.681 151.954 111.184 149.929 110.191C147.936 109.197 146.306 107.812 145.041 106.036C143.775 104.26 142.826 102.122 142.193 99.623C141.592 97.1241 141.291 94.3242 141.291 91.2234ZM179.213 57.579C180.447 57.579 181.522 58.0156 182.44 58.8887C183.357 59.7317 183.816 60.7402 183.816 61.9144C183.816 63.0886 183.357 64.0971 182.44 64.9401C181.522 65.753 180.447 66.1594 179.213 66.1594C178.01 66.1594 176.966 65.753 176.08 64.9401C175.194 64.0971 174.751 63.0886 174.751 61.9144C174.751 60.7402 175.194 59.7317 176.08 58.8887C176.966 58.0156 178.01 57.579 179.213 57.579ZM176.128 79.843H175.131C174.941 80.8967 174.403 81.9052 173.517 82.8687C172.663 83.8321 171.587 84.3138 170.29 84.3138V81.5139C171.271 81.273 172.109 80.8064 172.805 80.1139C173.533 79.3913 174.134 78.6086 174.609 77.7656C175.083 76.8924 175.447 76.0194 175.7 75.1463C175.985 74.2733 176.128 73.5054 176.128 72.8432H182.44V91.991C182.44 94.0684 182.472 96.0555 182.535 97.9521C182.598 99.8188 182.756 101.52 183.009 103.055C183.357 104.922 183.927 106.367 184.718 107.391C185.541 108.414 186.601 108.926 187.898 108.926C189.005 108.926 189.875 108.64 190.508 108.068C191.141 107.466 191.631 106.698 191.98 105.765C192.359 104.831 192.597 103.823 192.691 102.739C192.786 101.655 192.834 100.662 192.834 99.7585V95.7844H195.966V99.5779C195.966 101.294 195.808 102.89 195.492 104.365C195.207 105.84 194.716 107.12 194.02 108.203C193.356 109.287 192.454 110.13 191.315 110.733C190.208 111.365 188.768 111.681 186.996 111.681C185.193 111.681 183.531 111.319 182.013 110.597C180.494 109.905 179.276 108.76 178.358 107.165C177.441 105.599 176.839 103.702 176.555 101.475C176.27 99.2167 176.128 96.0555 176.128 91.991V79.843ZM216.468 73.7463C213.338 73.7463 211.011 75.2517 209.492 78.2624C207.974 81.243 207.214 85.6234 207.214 91.4039C207.214 97.1544 207.99 101.52 209.541 104.5C211.09 107.451 213.401 108.926 216.468 108.926C219.571 108.926 221.879 107.436 223.398 104.455C224.917 101.444 225.676 97.0339 225.676 91.2234C225.676 79.572 222.608 73.7463 216.468 73.7463ZM200.902 79.843H199.906C199.716 80.8967 199.178 81.9052 198.292 82.8687C197.438 83.8321 196.362 84.3138 195.064 84.3138V81.5139C196.045 81.273 196.884 80.8064 197.58 80.1139C198.308 79.3913 198.909 78.6086 199.383 77.7656C199.858 76.8924 200.222 76.0194 200.475 75.1463C200.76 74.2733 200.902 73.5054 200.902 72.8432H207.214V76.7269H208.164C209.334 74.9205 210.79 73.5204 212.53 72.527C214.302 71.5034 216.264 70.9917 218.414 70.9917C222.876 70.9917 226.247 72.7678 228.525 76.3205C230.834 79.843 231.988 84.8708 231.988 91.4039C231.988 95.378 231.482 98.8253 230.469 101.746C229.489 104.666 228.019 106.984 226.057 108.7C224.822 109.814 223.509 110.582 222.118 111.003C220.725 111.455 219.095 111.681 217.228 111.681C214.761 111.681 212.609 110.958 210.774 109.513C208.97 108.068 207.783 106.051 207.214 103.462H206.264C206.329 105.87 206.424 108.685 206.55 111.907C206.676 115.158 206.836 118.485 207.024 121.887C207.214 125.319 207.421 128.646 207.641 131.867C207.862 135.119 208.085 137.949 208.306 140.358H201.946C201.82 138.431 201.693 135.962 201.567 132.951C201.44 129.941 201.329 126.749 201.234 123.377C201.139 120.005 201.06 116.633 200.997 113.261C200.934 109.92 200.902 106.924 200.902 104.275V79.843ZM236.878 91.3136C236.878 88.4836 237.211 85.8192 237.875 83.3203C238.569 80.8214 239.582 78.6687 240.912 76.8623C242.241 75.0259 243.887 73.5958 245.847 72.5723C247.842 71.5185 250.134 70.9917 252.73 70.9917C256.622 70.9917 259.706 72.1056 261.984 74.3334C264.295 76.5313 265.449 79.3613 265.449 82.8236C265.449 85.1718 265.006 87.2643 264.121 89.1008C263.266 90.9072 262.031 92.4277 260.419 93.662C258.805 94.8963 256.889 95.8297 254.676 96.4619C252.461 97.064 250.025 97.365 247.366 97.365H243.474C243.697 98.7199 243.996 100.075 244.377 101.429C244.756 102.784 245.294 104.019 245.991 105.133C246.718 106.216 247.668 107.12 248.838 107.842C250.009 108.565 251.465 108.926 253.204 108.926C255.229 108.926 256.875 108.52 258.141 107.707C259.407 106.894 260.403 105.855 261.13 104.591C261.889 103.326 262.412 101.911 262.697 100.346C262.981 98.78 263.124 97.2598 263.124 95.7844H266.255C266.255 97.8619 266.002 99.8639 265.496 101.791C265.022 103.687 264.246 105.388 263.171 106.894C262.096 108.369 260.703 109.528 258.993 110.371C257.286 111.244 255.197 111.681 252.73 111.681C247.603 111.681 243.68 110.01 240.959 106.668C238.237 103.296 236.878 98.1779 236.878 91.3136ZM243.19 94.5651H246.797C250.373 94.5651 253.315 93.6167 255.624 91.7201C257.967 89.7933 259.137 86.9782 259.137 83.2752C259.137 82.1611 259.042 81.0472 258.852 79.9333C258.661 78.7892 258.313 77.7506 257.807 76.8173C257.333 75.8839 256.653 75.1463 255.768 74.6045C254.913 74.0324 253.773 73.7463 252.349 73.7463C250.387 73.7463 248.806 74.3033 247.603 75.4172C246.432 76.5313 245.515 77.9462 244.851 79.6624C244.219 81.3484 243.776 83.245 243.522 85.3525C243.3 87.4299 243.19 89.4168 243.19 91.3136V94.5651Z" fill="#FAAF08"/>
<mask id="mask0_2001_46" style="mask-type:luminance" maskUnits="userSpaceOnUse" x="95" y="25" width="148" height="43">
<path d="M243 25.0488H95.175V67.4391H243V25.0488Z" fill="white"/>
<path d="M117.515 40.2784C118.487 38.8911 118.973 37.5963 118.973 36.394C118.973 35.1916 118.616 34.2359 117.904 33.5268C117.191 32.8178 116.251 32.4632 115.085 32.4632C113.918 32.4632 112.979 32.7407 112.266 33.2956C111.553 33.8197 111.197 34.6675 111.197 35.839C111.197 36.9797 112.039 39.0453 113.724 42.0357C115.409 45.0261 116.478 46.953 116.932 47.8162C118.163 50.1592 118.778 52.4252 118.778 54.614C118.778 57.3579 117.725 59.593 115.619 61.3194C113.546 63.015 111.083 63.8628 108.232 63.8628C105.413 63.8628 103.194 63.0304 101.574 61.3657C99.954 59.67 99.144 57.697 99.144 55.4464C99.144 51.2845 101.849 47.847 107.26 45.1341C105.057 41.0029 103.955 38.1204 103.955 36.4864C103.955 34.2051 104.911 32.2782 106.823 30.706C108.767 29.1028 111.132 28.3013 113.918 28.3013C116.737 28.3013 118.892 28.9795 120.382 30.336C121.873 31.6925 122.618 33.4189 122.618 35.5153C122.618 36.9026 122.132 38.4903 121.16 40.2784H117.515ZM104.782 58.3136C105.656 59.2076 106.709 59.6546 107.941 59.6546C109.204 59.6546 110.176 59.3155 110.857 58.6373C111.569 57.9282 111.926 56.8954 111.926 55.5389C111.926 54.3058 111.424 52.7951 110.419 51.007C110.29 50.7604 110.047 50.3134 109.69 49.666C109.334 48.9877 109.075 48.5099 108.913 48.2324C105.284 50.0205 103.469 52.271 103.469 54.984C103.469 56.3713 103.907 57.4812 104.782 58.3136ZM140.662 58.3136L141.828 48.0937C141.828 47.2613 141.602 46.5676 141.148 46.0127C140.694 45.4578 139.966 45.1803 138.961 45.1803C137.957 45.1803 137.098 45.5657 136.385 46.3364C135.705 47.0763 135.203 48.0628 134.879 49.296C134.652 51.0533 134.312 53.6275 133.858 57.0187C133.404 60.3791 133.113 62.568 132.983 63.5854H126.519C128.852 44.687 130.262 33.0798 130.748 28.7637C131.428 28.5171 132.351 28.3938 133.518 28.3938C136.045 28.3938 137.309 29.1028 137.309 30.521V30.7984C136.758 35.6386 136.175 39.8931 135.559 43.5618C137.276 42.082 139.22 41.342 141.391 41.342C143.562 41.342 145.279 41.8661 146.543 42.9143C147.806 43.9625 148.438 45.2882 148.438 46.8913C148.438 47.3229 148.341 48.1245 148.146 49.296C147.401 53.9204 147.029 56.6334 147.029 57.4349C147.029 58.8839 147.531 59.6084 148.535 59.6084C149.378 59.6084 150.269 59.0843 151.208 58.0361C152.18 56.9571 152.958 55.3077 153.541 53.088C154.643 54.1979 155.307 55.0765 155.534 55.7239C153.849 61.0882 150.868 63.7703 146.591 63.7703C144.583 63.7703 143.092 63.1846 142.12 62.0131C141.148 60.8416 140.662 59.6084 140.662 58.3136ZM178.039 63.8166C175.058 63.8166 173.082 62.83 172.11 60.857C170.425 62.8609 168.254 63.8628 165.597 63.8628C162.973 63.8628 160.753 63.015 158.939 61.3194C157.157 59.6238 156.266 57.3887 156.266 54.614C156.266 50.5754 157.513 47.3538 160.008 44.9491C162.503 42.5444 165.662 41.342 169.485 41.342C169.582 41.342 169.68 41.342 169.777 41.342C171.397 41.342 172.887 41.6041 174.248 42.1282C175.123 41.6041 176.176 41.342 177.407 41.342C178.671 41.342 179.578 41.4962 180.129 41.8045C179.837 44.0859 179.529 46.3364 179.205 48.5561C178.881 50.745 178.654 52.3019 178.525 53.2267C178.233 55.3231 178.087 56.8338 178.087 57.7586C178.087 58.9918 178.606 59.6084 179.643 59.6084C180.453 59.6084 181.311 59.0997 182.218 58.0823C183.126 57.0341 183.919 55.4002 184.6 53.1805C185.539 53.982 186.187 54.8761 186.544 55.8626C185.604 58.7914 184.341 60.857 182.753 62.0593C181.165 63.2308 179.594 63.8166 178.039 63.8166ZM170.214 44.9491C168.141 44.9491 166.488 45.7044 165.257 47.215C164.058 48.6948 163.345 50.9145 163.119 53.8741C163.086 54.1516 163.07 54.4137 163.07 54.6603C163.07 56.1709 163.443 57.3733 164.188 58.2673C164.965 59.1614 165.954 59.6084 167.152 59.6084C169.194 59.6084 170.733 58.2365 171.769 55.4927L172.936 45.504C171.996 45.134 171.089 44.9491 170.214 44.9491ZM202.235 47.4C202.235 46.0435 201.57 45.3653 200.242 45.3653C198.946 45.3653 197.909 46.1668 197.132 47.77C200.631 50.3904 202.38 53.3346 202.38 56.6025C202.38 58.9764 201.684 60.7799 200.291 62.0131C198.897 63.2462 197.148 63.8628 195.042 63.8628C192.936 63.8628 191.397 63.2462 190.425 62.0131C189.453 60.7491 188.967 59.1614 188.967 57.25C188.967 56.6642 188.983 56.2326 189.015 55.9551L190.716 41.8507C191.883 41.5116 193.065 41.342 194.264 41.342C196.241 41.342 197.229 42.0357 197.229 43.423V43.5155C198.525 42.0665 200.177 41.342 202.186 41.342C203.644 41.342 204.778 41.6658 205.588 42.3132C206.398 42.9298 206.803 43.7621 206.803 44.8103C206.803 45.8585 206.382 46.7218 205.54 47.4C204.73 48.0474 203.66 48.3711 202.332 48.3711C202.267 48.3711 202.202 48.3711 202.137 48.3711C202.202 48.032 202.235 47.7083 202.235 47.4ZM199.221 56.3713C199.221 54.5832 198.249 52.7951 196.305 51.007C195.722 55.4464 195.431 57.6816 195.431 57.7124C195.431 59.0072 195.981 59.6546 197.083 59.6546C198.509 59.6546 199.221 58.5602 199.221 56.3713ZM221.825 53.2267C223.833 52.826 225.324 52.0552 226.296 50.9145C227.3 49.7739 227.802 48.6794 227.802 47.6312C227.802 46.5522 227.495 45.8277 226.879 45.4578C226.296 45.057 225.648 44.8566 224.935 44.8566C223.412 44.8566 222.068 45.6736 220.901 47.3075C219.767 48.9106 219.2 50.8375 219.2 53.088C219.2 55.3077 219.751 56.9725 220.853 58.0823C221.987 59.1614 223.38 59.7009 225.032 59.7009C227.462 59.7009 229.795 58.8993 232.031 57.2962C234.266 55.6931 236.081 53.5967 237.474 51.007C238.187 51.6544 238.835 52.456 239.418 53.4117C238.349 55.7239 236.453 57.9899 233.732 60.2096C232.371 61.2886 230.751 62.1672 228.872 62.8455C227.025 63.5237 225.113 63.8628 223.137 63.8628C219.897 63.8628 217.337 62.9225 215.458 61.042C213.449 59.0072 212.445 56.4021 212.445 53.2267C212.445 50.0513 213.692 47.2767 216.187 44.9028C218.714 42.529 221.727 41.342 225.227 41.342C227.721 41.342 229.746 41.8661 231.302 42.9143C232.857 43.9317 233.651 45.319 233.683 47.0763C233.683 49.4501 232.679 51.377 230.67 52.8568C228.693 54.3366 225.972 55.3694 222.505 55.9551L221.825 53.2267Z" fill="black"/>
</mask>
<g mask="url(#mask0_2001_46)">
<path d="M117.515 40.2785L115.83 39.2097L113.731 42.2053H117.515V40.2785ZM112.266 33.2957L113.504 34.8204L113.527 34.804L113.548 34.7871L112.266 33.2957ZM115.619 61.3195L116.939 62.7808L116.941 62.7793L115.619 61.3195ZM101.574 61.3657L100.076 62.6619L100.088 62.6748L101.574 61.3657ZM107.26 45.1341L108.204 46.8388L109.968 45.9542L109.066 44.2622L107.26 45.1341ZM106.823 30.706L108.147 32.1637L108.149 32.1621L106.823 30.706ZM121.16 40.2785V42.2053H122.392L122.958 41.1637L121.16 40.2785ZM104.782 58.3136L106.264 57.0007L106.239 56.9755L106.213 56.9512L104.782 58.3136ZM110.857 58.6373L109.393 57.3055L109.392 57.3069L110.857 58.6373ZM110.419 51.0071L108.608 51.8688L108.62 51.8923L108.633 51.9154L110.419 51.0071ZM109.69 49.666L107.879 50.5277L107.888 50.5441L107.896 50.5601L109.69 49.666ZM108.913 48.2325L110.683 47.2968L109.728 45.6609L107.981 46.5214L108.913 48.2325ZM117.515 40.2785L119.2 41.3473C120.311 39.7617 120.998 38.0977 120.998 36.394H118.973H116.948C116.948 37.095 116.663 38.0207 115.83 39.2097L117.515 40.2785ZM118.973 36.394H120.998C120.998 34.8136 120.518 33.3398 119.367 32.1951L117.904 33.5269L116.44 34.8587C116.715 35.1321 116.948 35.5697 116.948 36.394H118.973ZM117.904 33.5269L119.367 32.1951C118.221 31.0546 116.724 30.5365 115.085 30.5365V32.4633V34.3901C115.778 34.3901 116.161 34.5811 116.44 34.8587L117.904 33.5269ZM115.085 32.4633V30.5365C113.578 30.5365 112.146 30.8997 110.984 31.8043L112.266 33.2957L113.548 34.7871C113.812 34.5818 114.259 34.3901 115.085 34.3901V32.4633ZM112.266 33.2957L111.028 31.771C109.652 32.7826 109.172 34.3048 109.172 35.8391H111.197H113.222C113.222 35.0304 113.454 34.857 113.504 34.8204L112.266 33.2957ZM111.197 35.8391H109.172C109.172 36.7792 109.498 37.8549 109.941 38.9409C110.403 40.0743 111.076 41.414 111.939 42.9462L113.724 42.0358L115.509 41.1254C114.687 39.6671 114.097 38.4789 113.717 37.5467C113.317 36.5671 113.222 36.0397 113.222 35.8391H111.197ZM113.724 42.0358L111.939 42.9462C113.628 45.9434 114.682 47.8442 115.12 48.6779L116.932 47.8163L118.743 46.9546C118.274 46.0619 117.19 44.109 115.509 41.1254L113.724 42.0358ZM116.932 47.8163L115.12 48.6779C116.238 50.8056 116.753 52.7777 116.753 54.6141H118.778H120.803C120.803 52.0728 120.087 49.513 118.743 46.9546L116.932 47.8163ZM118.778 54.6141H116.753C116.753 56.8211 115.938 58.5146 114.298 59.8597L115.619 61.3195L116.941 62.7793C119.512 60.6715 120.803 57.8947 120.803 54.6141H118.778ZM115.619 61.3195L114.3 59.8582C112.61 61.2397 110.622 61.9361 108.232 61.9361V63.8629V65.7897C111.545 65.7897 114.482 64.7905 116.939 62.7808L115.619 61.3195ZM108.232 63.8629V61.9361C105.866 61.9361 104.227 61.2557 103.06 60.0566L101.574 61.3657L100.088 62.6748C102.161 64.8053 104.961 65.7897 108.232 65.7897V63.8629ZM101.574 61.3657L103.072 60.0696C101.784 58.7215 101.169 57.2082 101.169 55.4465H99.144H97.119C97.119 58.1859 98.1234 60.6187 100.076 62.6619L101.574 61.3657ZM99.144 55.4465H101.169C101.169 52.274 103.157 49.3695 108.204 46.8388L107.26 45.1341L106.316 43.4295C100.542 46.3247 97.119 50.2951 97.119 55.4465H99.144ZM107.26 45.1341L109.066 44.2622C107.985 42.2348 107.197 40.5569 106.685 39.2155C106.157 37.8338 105.98 36.9603 105.98 36.4865H103.955H101.93C101.93 37.6467 102.305 39.0315 102.879 40.5323C103.467 42.0734 104.332 43.9023 105.455 46.006L107.26 45.1341ZM103.955 36.4865H105.98C105.98 34.7982 106.653 33.3924 108.147 32.1637L106.823 30.706L105.498 29.2484C103.169 31.1642 101.93 33.6121 101.93 36.4865H103.955ZM106.823 30.706L108.149 32.1621C109.693 30.8889 111.575 30.2282 113.918 30.2282V28.3013V26.3745C110.689 26.3745 107.841 27.3169 105.497 29.2499L106.823 30.706ZM113.918 28.3013V30.2282C116.41 30.2282 117.989 30.8245 118.983 31.7284L120.382 30.3361L121.782 28.9437C119.794 27.1346 117.064 26.3745 113.918 26.3745V28.3013ZM120.382 30.3361L118.983 31.7284C120.044 32.6947 120.593 33.9048 120.593 35.5154H122.618H124.643C124.643 32.9332 123.701 30.6904 121.782 28.9437L120.382 30.3361ZM122.618 35.5154H120.593C120.593 36.4873 120.247 37.764 119.361 39.3933L121.16 40.2785L122.958 41.1637C124.017 39.2168 124.643 37.3181 124.643 35.5154H122.618ZM121.16 40.2785V38.3517H117.515V40.2785V42.2053H121.16V40.2785ZM104.782 58.3136L103.3 59.6266C104.539 60.8933 106.121 61.5815 107.941 61.5815V59.6547V57.7279C107.298 57.7279 106.774 57.5221 106.264 57.0007L104.782 58.3136ZM107.941 59.6547V61.5815C109.593 61.5815 111.158 61.1272 112.322 59.9678L110.857 58.6373L109.392 57.3069C109.194 57.504 108.816 57.7279 107.941 57.7279V59.6547ZM110.857 58.6373L112.32 59.9692C113.512 58.7832 113.951 57.1995 113.951 55.539H111.926H109.901C109.901 56.5914 109.627 57.0733 109.393 57.3055L110.857 58.6373ZM111.926 55.539H113.951C113.951 53.8472 113.277 52.0067 112.205 50.0988L110.419 51.0071L108.633 51.9154C109.57 53.5837 109.901 54.7644 109.901 55.539H111.926ZM110.419 51.0071L112.23 50.1454C112.091 49.8803 111.84 49.4182 111.484 48.772L109.69 49.666L107.896 50.5601C108.253 51.2086 108.488 51.6406 108.608 51.8688L110.419 51.0071ZM109.69 49.666L111.501 48.8043C111.145 48.1257 110.868 47.6145 110.683 47.2968L108.913 48.2325L107.142 49.1681C107.281 49.4053 107.523 49.8498 107.879 50.5277L109.69 49.666ZM108.913 48.2325L107.981 46.5214C104.01 48.4785 101.444 51.256 101.444 54.9841H103.469H105.494C105.494 53.2861 106.558 51.5626 109.844 49.9435L108.913 48.2325ZM103.469 54.9841H101.444C101.444 56.7843 102.028 58.4185 103.35 59.6761L104.782 58.3136L106.213 56.9512C105.786 56.544 105.494 55.9585 105.494 54.9841H103.469ZM140.662 58.3136L138.649 58.1055L138.637 58.2094V58.3136H140.662ZM141.828 48.0937L143.842 48.3018L143.853 48.198V48.0937H141.828ZM136.385 46.3365L134.865 45.0636L134.861 45.0676L136.385 46.3365ZM134.879 49.2961L132.914 48.8288L132.884 48.9437L132.869 49.0612L134.879 49.2961ZM133.858 57.0188L135.867 57.2643L135.867 57.2622L133.858 57.0188ZM132.983 63.5854V65.5123H134.778L134.994 63.8172L132.983 63.5854ZM126.519 63.5854L124.508 63.3606L124.243 65.5123H126.519V63.5854ZM130.748 28.7638L130.027 26.9632L128.867 27.3838L128.734 28.5586L130.748 28.7638ZM137.309 30.7985L139.322 31.0058L139.334 30.9026V30.7985H137.309ZM135.559 43.5618L133.56 43.258L132.652 48.6668L136.918 44.99L135.559 43.5618ZM148.146 49.2961L146.146 48.9955L146.145 49.004L148.146 49.2961ZM151.208 58.0362L149.671 56.7822L149.668 56.7859L151.208 58.0362ZM153.541 53.0881L155.013 51.7651L152.474 49.2063L151.577 52.6208L153.541 53.0881ZM155.534 55.724L157.474 56.2756L157.657 55.6924L157.455 55.1147L155.534 55.724ZM140.662 58.3136L142.675 58.5217L143.842 48.3018L141.828 48.0937L139.815 47.8856L138.649 58.1055L140.662 58.3136ZM141.828 48.0937H143.853C143.853 46.9147 143.525 45.7823 142.747 44.8299L141.148 46.0128L139.55 47.1956C139.678 47.3531 139.803 47.608 139.803 48.0937H141.828ZM141.148 46.0128L142.747 44.8299C141.783 43.6505 140.35 43.2535 138.961 43.2535V45.1804V47.1072C139.274 47.1072 139.44 47.1513 139.509 47.1775C139.526 47.1837 139.537 47.1891 139.543 47.1924C139.549 47.1956 139.552 47.1976 139.552 47.1976C139.552 47.1978 139.551 47.1968 139.55 47.1956C139.548 47.1945 139.549 47.1947 139.55 47.1956L141.148 46.0128ZM138.961 45.1804V43.2535C137.328 43.2535 135.93 43.9119 134.865 45.0636L136.385 46.3365L137.906 47.6093C138.266 47.2195 138.586 47.1072 138.961 47.1072V45.1804ZM136.385 46.3365L134.861 45.0676C133.917 46.095 133.294 47.3831 132.914 48.8288L134.879 49.2961L136.843 49.7633C137.111 48.7427 137.493 48.0577 137.909 47.6053L136.385 46.3365ZM134.879 49.2961L132.869 49.0612C132.643 50.8142 132.303 53.385 131.849 56.7754L133.858 57.0188L135.867 57.2622C136.321 53.8702 136.661 51.2925 136.889 49.531L134.879 49.2961ZM133.858 57.0188L131.85 56.7733C131.396 60.1322 131.104 62.3282 130.973 63.3536L132.983 63.5854L134.994 63.8172C135.122 62.808 135.413 60.6262 135.867 57.2643L133.858 57.0188ZM132.983 63.5854V61.6586H126.519V63.5854V65.5123H132.983V63.5854ZM126.519 63.5854L128.531 63.8103C130.863 44.9162 132.274 33.2972 132.761 28.969L130.748 28.7638L128.734 28.5586C128.25 32.8625 126.842 44.458 124.508 63.3606L126.519 63.5854ZM130.748 28.7638L131.468 30.5644C131.822 30.4363 132.468 30.3207 133.518 30.3207V28.3938V26.467C132.235 26.467 131.034 26.598 130.027 26.9632L130.748 28.7638ZM133.518 28.3938V30.3207C134.649 30.3207 135.163 30.4904 135.332 30.5854C135.386 30.6157 135.349 30.6068 135.309 30.5386C135.269 30.4715 135.284 30.4449 135.284 30.521H137.309H139.334C139.334 29.1434 138.651 27.9738 137.39 27.2659C136.295 26.6518 134.914 26.467 133.518 26.467V28.3938ZM137.309 30.521H135.284V30.7985H137.309H139.334V30.521H137.309ZM137.309 30.7985L135.296 30.591C134.747 35.4083 134.168 39.6294 133.56 43.258L135.559 43.5618L137.559 43.8657C138.181 40.1569 138.768 35.8692 139.322 31.0058L137.309 30.7985ZM135.559 43.5618L136.918 44.99C138.291 43.8075 139.758 43.2689 141.391 43.2689V41.3421V39.4153C138.682 39.4153 136.262 40.3565 134.2 42.1337L135.559 43.5618ZM141.391 41.3421V43.2689C143.22 43.2689 144.415 43.7056 145.212 44.3669L146.543 42.9144L147.873 41.462C146.143 40.0267 143.904 39.4153 141.391 39.4153V41.3421ZM146.543 42.9144L145.212 44.3669C146.032 45.047 146.413 45.8418 146.413 46.8914H148.438H150.463C150.463 44.7347 149.581 42.8782 147.873 41.462L146.543 42.9144ZM148.438 46.8914H146.413C146.413 47.1502 146.343 47.8088 146.146 48.9955L148.146 49.2961L150.147 49.5967C150.339 48.4404 150.463 47.4958 150.463 46.8914H148.438ZM148.146 49.2961L146.145 49.004C145.771 51.3219 145.489 53.1723 145.3 54.5494C145.118 55.8731 145.004 56.8841 145.004 57.435H147.029H149.054C149.054 57.1843 149.125 56.4381 149.316 55.0488C149.499 53.7129 149.777 51.8946 150.148 49.5882L148.146 49.2961ZM147.029 57.435H145.004C145.004 58.3102 145.144 59.3019 145.715 60.126C146.383 61.0904 147.434 61.5353 148.535 61.5353V59.6085V57.6816C148.542 57.6816 148.646 57.6838 148.79 57.7529C148.941 57.826 149.043 57.9285 149.096 58.0042C149.139 58.0672 149.124 58.0753 149.101 57.9722C149.077 57.8699 149.054 57.6974 149.054 57.435H147.029ZM148.535 59.6085V61.5353C150.283 61.5353 151.689 60.469 152.749 59.2865L151.208 58.0362L149.668 56.7859C149.286 57.2113 148.984 57.4512 148.771 57.5764C148.567 57.6959 148.499 57.6816 148.535 57.6816V59.6085ZM151.208 58.0362L152.746 59.2901C154.01 57.8865 154.888 55.9078 155.506 53.5553L153.541 53.0881L151.577 52.6208C151.028 54.7078 150.35 56.0278 149.671 56.7822L151.208 58.0362ZM153.541 53.0881L152.069 54.411C153.158 55.5087 153.539 56.1221 153.613 56.3332L155.534 55.724L157.455 55.1147C157.075 54.0311 156.127 52.8871 155.013 51.7651L153.541 53.0881ZM155.534 55.724L153.593 55.1723C152.811 57.6631 151.787 59.3293 150.643 60.3588C149.546 61.3461 148.237 61.8436 146.591 61.8436V63.7704V65.6972C149.223 65.6972 151.542 64.8537 153.426 63.1588C155.262 61.5062 156.571 59.1491 157.474 56.2756L155.534 55.724ZM146.591 63.7704V61.8436C145.013 61.8436 144.194 61.4027 143.709 60.8193L142.12 62.0131L140.531 63.207C141.991 64.9666 144.152 65.6972 146.591 65.6972V63.7704ZM142.12 62.0131L143.709 60.8193C142.975 59.9333 142.687 59.1106 142.687 58.3136H140.662H138.637C138.637 60.1064 139.322 61.7499 140.531 63.207L142.12 62.0131ZM172.11 60.857L173.943 60.0393L172.562 57.235L170.529 59.6534L172.11 60.857ZM158.939 61.3195L157.507 62.6819L157.52 62.6941L158.939 61.3195ZM174.248 42.1283L173.488 43.9142L174.45 44.2846L175.327 43.7587L174.248 42.1283ZM180.129 41.8046L182.139 42.0371L182.299 40.7839L181.156 40.1438L180.129 41.8046ZM179.205 48.5562L181.211 48.825L181.211 48.8213L179.205 48.5562ZM178.525 53.2268L176.518 52.9721L176.517 52.974L178.525 53.2268ZM182.218 58.0824L183.763 59.3291L183.772 59.3183L183.782 59.3073L182.218 58.0824ZM184.6 53.1806L185.952 51.7458L183.557 49.7026L182.656 52.641L184.6 53.1806ZM186.544 55.8627L188.481 56.4253L188.673 55.8274L188.459 55.2363L186.544 55.8627ZM182.753 62.0594L183.994 63.5822L184.014 63.5669L182.753 62.0594ZM165.257 47.2151L163.657 46.0343L163.653 46.0388L165.257 47.2151ZM163.119 53.8742L165.131 54.0869L165.136 54.0507L165.138 54.0143L163.119 53.8742ZM164.188 58.2674L162.601 59.4647L162.614 59.4803L162.628 59.4959L164.188 58.2674ZM171.769 55.4928L173.675 56.1446L173.756 55.9311L173.782 55.7055L171.769 55.4928ZM172.936 45.5041L174.948 45.7168L175.117 44.2775L173.71 43.7237L172.936 45.5041ZM178.039 63.8167V61.8898C175.561 61.8898 174.476 61.1218 173.943 60.0393L172.11 60.857L170.276 61.6748C171.687 64.5384 174.556 65.7435 178.039 65.7435V63.8167ZM172.11 60.857L170.529 59.6534C169.221 61.2083 167.628 61.9361 165.597 61.9361V63.8629V65.7897C168.88 65.7897 171.629 64.5136 173.691 62.0607L172.11 60.857ZM165.597 63.8629V61.9361C163.485 61.9361 161.781 61.2742 160.358 59.9449L158.939 61.3195L157.52 62.6941C159.727 64.756 162.461 65.7897 165.597 65.7897V63.8629ZM158.939 61.3195L160.371 59.957C159.029 58.6799 158.291 56.9647 158.291 54.6141H156.266H154.241C154.241 57.8129 155.285 60.5678 157.507 62.6819L158.939 61.3195ZM156.266 54.6141H158.291C158.291 50.9765 159.4 48.2779 161.449 46.3027L160.008 44.9491L158.567 43.5955C155.627 46.4297 154.241 50.1745 154.241 54.6141H156.266ZM160.008 44.9491L161.449 46.3027C163.533 44.2948 166.158 43.2689 169.485 43.2689V41.3421V39.4153C165.167 39.4153 161.474 40.7941 158.567 43.5955L160.008 44.9491ZM169.485 41.3421V43.2689C169.485 43.2689 169.485 43.2689 169.485 43.2689C169.485 43.2689 169.487 43.2689 169.488 43.2689C169.487 43.2689 169.488 43.2689 169.488 43.2689C169.488 43.2689 169.49 43.2689 169.49 43.2689C169.49 43.2689 169.492 43.2689 169.492 43.2689C169.492 43.2689 169.492 43.2689 169.492 43.2689C169.492 43.2689 169.494 43.2689 169.494 43.2689C169.494 43.2689 169.495 43.2689 169.494 43.2689C169.495 43.2689 169.497 43.2689 169.497 43.2689C169.497 43.2689 169.497 43.2689 169.497 43.2689C169.497 43.2689 169.499 43.2689 169.499 43.2689C169.499 43.2689 169.501 43.2689 169.501 43.2689C169.501 43.2689 169.501 43.2689 169.501 43.2689C169.501 43.2689 169.503 43.2689 169.503 43.2689C169.503 43.2689 169.504 43.2689 169.503 43.2689C169.504 43.2689 169.506 43.2689 169.506 43.2689C169.506 43.2689 169.506 43.2689 169.506 43.2689C169.506 43.2689 169.508 43.2689 169.508 43.2689C169.508 43.2689 169.51 43.2689 169.51 43.2689C169.51 43.2689 169.511 43.2689 169.51 43.2689C169.51 43.2689 169.512 43.2689 169.513 43.2689C169.512 43.2689 169.513 43.2689 169.513 43.2689C169.513 43.2689 169.515 43.2689 169.515 43.2689C169.515 43.2689 169.515 43.2689 169.515 43.2689C169.515 43.2689 169.517 43.2689 169.517 43.2689C169.517 43.2689 169.519 43.2689 169.519 43.2689C169.519 43.2689 169.52 43.2689 169.519 43.2689C169.519 43.2689 169.521 43.2689 169.522 43.2689C169.521 43.2689 169.522 43.2689 169.522 43.2689C169.522 43.2689 169.524 43.2689 169.524 43.2689C169.524 43.2689 169.524 43.2689 169.524 43.2689C169.524 43.2689 169.526 43.2689 169.526 43.2689C169.527 43.2689 169.528 43.2689 169.529 43.2689C169.528 43.2689 169.529 43.2689 169.529 43.2689C169.529 43.2689 169.531 43.2689 169.531 43.2689C169.531 43.2689 169.531 43.2689 169.531 43.2689C169.531 43.2689 169.533 43.2689 169.533 43.2689C169.533 43.2689 169.533 43.2689 169.533 43.2689C169.533 43.2689 169.535 43.2689 169.535 43.2689C169.536 43.2689 169.537 43.2689 169.538 43.2689C169.537 43.2689 169.538 43.2689 169.538 43.2689C169.538 43.2689 169.54 43.2689 169.54 43.2689C169.54 43.2689 169.54 43.2689 169.54 43.2689C169.54 43.2689 169.542 43.2689 169.542 43.2689C169.542 43.2689 169.543 43.2689 169.542 43.2689C169.543 43.2689 169.544 43.2689 169.545 43.2689C169.545 43.2689 169.547 43.2689 169.547 43.2689C169.547 43.2689 169.547 43.2689 169.547 43.2689C169.547 43.2689 169.549 43.2689 169.549 43.2689C169.549 43.2689 169.549 43.2689 169.549 43.2689C169.549 43.2689 169.551 43.2689 169.551 43.2689C169.551 43.2689 169.552 43.2689 169.551 43.2689C169.552 43.2689 169.553 43.2689 169.554 43.2689C169.554 43.2689 169.556 43.2689 169.556 43.2689C169.556 43.2689 169.556 43.2689 169.556 43.2689C169.556 43.2689 169.558 43.2689 169.558 43.2689C169.558 43.2689 169.558 43.2689 169.558 43.2689C169.558 43.2689 169.56 43.2689 169.561 43.2689C169.56 43.2689 169.561 43.2689 169.561 43.2689C169.561 43.2689 169.563 43.2689 169.563 43.2689C169.563 43.2689 169.565 43.2689 169.565 43.2689C169.565 43.2689 169.565 43.2689 169.565 43.2689C169.565 43.2689 169.567 43.2689 169.567 43.2689C169.567 43.2689 169.567 43.2689 169.567 43.2689C169.567 43.2689 169.569 43.2689 169.57 43.2689C169.569 43.2689 169.57 43.2689 169.57 43.2689C169.57 43.2689 169.572 43.2689 169.572 43.2689C169.572 43.2689 169.574 43.2689 169.574 43.2689C169.574 43.2689 169.574 43.2689 169.574 43.2689C169.574 43.2689 169.576 43.2689 169.576 43.2689C169.576 43.2689 169.577 43.2689 169.576 43.2689C169.577 43.2689 169.579 43.2689 169.579 43.2689C169.579 43.2689 169.579 43.2689 169.579 43.2689C169.579 43.2689 169.581 43.2689 169.581 43.2689C169.581 43.2689 169.583 43.2689 169.583 43.2689C169.583 43.2689 169.583 43.2689 169.583 43.2689C169.583 43.2689 169.585 43.2689 169.585 43.2689C169.585 43.2689 169.586 43.2689 169.585 43.2689C169.586 43.2689 169.588 43.2689 169.588 43.2689C169.588 43.2689 169.588 43.2689 169.588 43.2689C169.588 43.2689 169.59 43.2689 169.59 43.2689C169.59 43.2689 169.592 43.2689 169.592 43.2689C169.592 43.2689 169.593 43.2689 169.592 43.2689C169.592 43.2689 169.594 43.2689 169.595 43.2689C169.594 43.2689 169.595 43.2689 169.595 43.2689C169.595 43.2689 169.597 43.2689 169.597 43.2689C169.597 43.2689 169.597 43.2689 169.597 43.2689C169.597 43.2689 169.599 43.2689 169.599 43.2689C169.599 43.2689 169.601 43.2689 169.601 43.2689C169.601 43.2689 169.602 43.2689 169.601 43.2689C169.601 43.2689 169.603 43.2689 169.604 43.2689C169.603 43.2689 169.604 43.2689 169.604 43.2689C169.604 43.2689 169.606 43.2689 169.606 43.2689C169.606 43.2689 169.606 43.2689 169.606 43.2689C169.606 43.2689 169.608 43.2689 169.608 43.2689C169.609 43.2689 169.61 43.2689 169.611 43.2689C169.61 43.2689 169.611 43.2689 169.611 43.2689C169.611 43.2689 169.613 43.2689 169.613 43.2689C169.613 43.2689 169.613 43.2689 169.613 43.2689C169.613 43.2689 169.615 43.2689 169.615 43.2689C169.615 43.2689 169.615 43.2689 169.615 43.2689C169.615 43.2689 169.617 43.2689 169.617 43.2689C169.618 43.2689 169.619 43.2689 169.62 43.2689C169.619 43.2689 169.62 43.2689 169.62 43.2689C169.62 43.2689 169.622 43.2689 169.622 43.2689C169.622 43.2689 169.622 43.2689 169.622 43.2689C169.622 43.2689 169.624 43.2689 169.624 43.2689C169.624 43.2689 169.625 43.2689 169.624 43.2689C169.625 43.2689 169.626 43.2689 169.627 43.2689C169.627 43.2689 169.629 43.2689 169.629 43.2689C169.629 43.2689 169.629 43.2689 169.629 43.2689C169.629 43.2689 169.631 43.2689 169.631 43.2689C169.631 43.2689 169.631 43.2689 169.631 43.2689C169.631 43.2689 169.633 43.2689 169.633 43.2689C169.633 43.2689 169.634 43.2689 169.633 43.2689C169.634 43.2689 169.635 43.2689 169.636 43.2689C169.636 43.2689 169.638 43.2689 169.638 43.2689C169.638 43.2689 169.638 43.2689 169.638 43.2689C169.638 43.2689 169.64 43.2689 169.64 43.2689C169.64 43.2689 169.64 43.2689 169.64 43.2689C169.64 43.2689 169.642 43.2689 169.643 43.2689C169.642 43.2689 169.643 43.2689 169.643 43.2689C169.643 43.2689 169.645 43.2689 169.645 43.2689C169.645 43.2689 169.647 43.2689 169.647 43.2689C169.647 43.2689 169.647 43.2689 169.647 43.2689C169.647 43.2689 169.649 43.2689 169.649 43.2689C169.649 43.2689 169.649 43.2689 169.649 43.2689C169.649 43.2689 169.651 43.2689 169.652 43.2689C169.651 43.2689 169.652 43.2689 169.652 43.2689C169.652 43.2689 169.654 43.2689 169.654 43.2689C169.654 43.2689 169.656 43.2689 169.656 43.2689C169.656 43.2689 169.656 43.2689 169.656 43.2689C169.656 43.2689 169.658 43.2689 169.658 43.2689C169.658 43.2689 169.659 43.2689 169.658 43.2689C169.659 43.2689 169.661 43.2689 169.661 43.2689C169.661 43.2689 169.661 43.2689 169.661 43.2689C169.661 43.2689 169.663 43.2689 169.663 43.2689C169.663 43.2689 169.665 43.2689 169.665 43.2689C169.665 43.2689 169.665 43.2689 169.665 43.2689C169.665 43.2689 169.667 43.2689 169.667 43.2689C169.667 43.2689 169.668 43.2689 169.667 43.2689C169.668 43.2689 169.67 43.2689 169.67 43.2689C169.67 43.2689 169.67 43.2689 169.67 43.2689C169.67 43.2689 169.672 43.2689 169.672 43.2689C169.672 43.2689 169.674 43.2689 169.674 43.2689C169.674 43.2689 169.675 43.2689 169.674 43.2689C169.674 43.2689 169.676 43.2689 169.677 43.2689C169.676 43.2689 169.677 43.2689 169.677 43.2689C169.677 43.2689 169.679 43.2689 169.679 43.2689C169.679 43.2689 169.679 43.2689 169.679 43.2689C169.679 43.2689 169.681 43.2689 169.681 43.2689C169.681 43.2689 169.683 43.2689 169.683 43.2689C169.683 43.2689 169.684 43.2689 169.683 43.2689C169.683 43.2689 169.686 43.2689 169.686 43.2689C169.686 43.2689 169.686 43.2689 169.686 43.2689C169.686 43.2689 169.688 43.2689 169.688 43.2689C169.688 43.2689 169.688 43.2689 169.688 43.2689C169.688 43.2689 169.69 43.2689 169.69 43.2689C169.691 43.2689 169.692 43.2689 169.693 43.2689C169.692 43.2689 169.693 43.2689 169.693 43.2689C169.693 43.2689 169.695 43.2689 169.695 43.2689C169.695 43.2689 169.695 43.2689 169.695 43.2689C169.695 43.2689 169.697 43.2689 169.697 43.2689C169.697 43.2689 169.697 43.2689 169.697 43.2689C169.697 43.2689 169.699 43.2689 169.699 43.2689C169.7 43.2689 169.701 43.2689 169.702 43.2689C169.701 43.2689 169.702 43.2689 169.702 43.2689C169.702 43.2689 169.704 43.2689 169.704 43.2689C169.704 43.2689 169.704 43.2689 169.704 43.2689C169.704 43.2689 169.706 43.2689 169.706 43.2689C169.706 43.2689 169.707 43.2689 169.706 43.2689C169.707 43.2689 169.708 43.2689 169.709 43.2689C169.709 43.2689 169.711 43.2689 169.711 43.2689C169.711 43.2689 169.711 43.2689 169.711 43.2689C169.711 43.2689 169.713 43.2689 169.713 43.2689C169.713 43.2689 169.713 43.2689 169.713 43.2689C169.713 43.2689 169.715 43.2689 169.715 43.2689C169.715 43.2689 169.716 43.2689 169.715 43.2689C169.716 43.2689 169.718 43.2689 169.718 43.2689C169.718 43.2689 169.72 43.2689 169.72 43.2689C169.72 43.2689 169.72 43.2689 169.72 43.2689C169.72 43.2689 169.722 43.2689 169.722 43.2689C169.722 43.2689 169.722 43.2689 169.722 43.2689C169.722 43.2689 169.724 43.2689 169.725 43.2689C169.724 43.2689 169.725 43.2689 169.725 43.2689C169.725 43.2689 169.727 43.2689 169.727 43.2689C169.727 43.2689 169.729 43.2689 169.729 43.2689C169.729 43.2689 169.729 43.2689 169.729 43.2689C169.729 43.2689 169.731 43.2689 169.731 43.2689C169.731 43.2689 169.731 43.2689 169.731 43.2689C169.731 43.2689 169.733 43.2689 169.734 43.2689C169.733 43.2689 169.734 43.2689 169.734 43.2689C169.734 43.2689 169.736 43.2689 169.736 43.2689C169.736 43.2689 169.738 43.2689 169.738 43.2689C169.738 43.2689 169.738 43.2689 169.738 43.2689C169.738 43.2689 169.74 43.2689 169.74 43.2689C169.74 43.2689 169.741 43.2689 169.74 43.2689C169.741 43.2689 169.743 43.2689 169.743 43.2689C169.743 43.2689 169.743 43.2689 169.743 43.2689C169.743 43.2689 169.745 43.2689 169.745 43.2689C169.745 43.2689 169.747 43.2689 169.747 43.2689C169.747 43.2689 169.747 43.2689 169.747 43.2689C169.747 43.2689 169.749 43.2689 169.749 43.2689C169.749 43.2689 169.75 43.2689 169.749 43.2689C169.75 43.2689 169.752 43.2689 169.752 43.2689C169.752 43.2689 169.752 43.2689 169.752 43.2689C169.752 43.2689 169.754 43.2689 169.754 43.2689C169.754 43.2689 169.756 43.2689 169.756 43.2689C169.756 43.2689 169.757 43.2689 169.756 43.2689C169.756 43.2689 169.758 43.2689 169.759 43.2689C169.758 43.2689 169.759 43.2689 169.759 43.2689C169.759 43.2689 169.761 43.2689 169.761 43.2689C169.761 43.2689 169.761 43.2689 169.761 43.2689C169.761 43.2689 169.763 43.2689 169.763 43.2689C169.763 43.2689 169.765 43.2689 169.765 43.2689C169.765 43.2689 169.766 43.2689 169.765 43.2689C169.765 43.2689 169.768 43.2689 169.768 43.2689C169.768 43.2689 169.768 43.2689 169.768 43.2689C169.768 43.2689 169.77 43.2689 169.77 43.2689C169.77 43.2689 169.77 43.2689 169.77 43.2689C169.77 43.2689 169.772 43.2689 169.772 43.2689C169.773 43.2689 169.774 43.2689 169.775 43.2689C169.774 43.2689 169.775 43.2689 169.775 43.2689C169.775 43.2689 169.777 43.2689 169.777 43.2689V41.3421V39.4153C169.777 39.4153 169.775 39.4153 169.775 39.4153C169.774 39.4153 169.773 39.4153 169.772 39.4153C169.772 39.4153 169.773 39.4153 169.772 39.4153C169.772 39.4153 169.77 39.4153 169.77 39.4153C169.77 39.4153 169.77 39.4153 169.77 39.4153C169.77 39.4153 169.768 39.4153 169.768 39.4153C169.768 39.4153 169.766 39.4153 169.765 39.4153C169.765 39.4153 169.763 39.4153 169.763 39.4153C169.763 39.4153 169.763 39.4153 169.763 39.4153C169.763 39.4153 169.761 39.4153 169.761 39.4153C169.761 39.4153 169.761 39.4153 169.761 39.4153C169.761 39.4153 169.759 39.4153 169.759 39.4153C169.758 39.4153 169.757 39.4153 169.756 39.4153C169.756 39.4153 169.754 39.4153 169.754 39.4153C169.754 39.4153 169.754 39.4153 169.754 39.4153C169.754 39.4153 169.752 39.4153 169.752 39.4153C169.752 39.4153 169.752 39.4153 169.752 39.4153C169.752 39.4153 169.75 39.4153 169.749 39.4153C169.749 39.4153 169.747 39.4153 169.747 39.4153C169.747 39.4153 169.745 39.4153 169.745 39.4153C169.745 39.4153 169.745 39.4153 169.745 39.4153C169.745 39.4153 169.743 39.4153 169.743 39.4153C169.743 39.4153 169.743 39.4153 169.743 39.4153C169.743 39.4153 169.741 39.4153 169.74 39.4153C169.74 39.4153 169.738 39.4153 169.738 39.4153C169.738 39.4153 169.736 39.4153 169.736 39.4153C169.736 39.4153 169.736 39.4153 169.736 39.4153C169.736 39.4153 169.734 39.4153 169.734 39.4153C169.733 39.4153 169.734 39.4153 169.734 39.4153C169.733 39.4153 169.731 39.4153 169.731 39.4153C169.731 39.4153 169.729 39.4153 169.729 39.4153C169.729 39.4153 169.727 39.4153 169.727 39.4153C169.727 39.4153 169.727 39.4153 169.727 39.4153C169.727 39.4153 169.725 39.4153 169.725 39.4153C169.724 39.4153 169.725 39.4153 169.725 39.4153C169.724 39.4153 169.722 39.4153 169.722 39.4153C169.722 39.4153 169.72 39.4153 169.72 39.4153C169.72 39.4153 169.718 39.4153 169.718 39.4153C169.718 39.4153 169.718 39.4153 169.718 39.4153C169.718 39.4153 169.716 39.4153 169.715 39.4153C169.715 39.4153 169.716 39.4153 169.715 39.4153C169.715 39.4153 169.713 39.4153 169.713 39.4153C169.713 39.4153 169.711 39.4153 169.711 39.4153C169.711 39.4153 169.709 39.4153 169.709 39.4153C169.708 39.4153 169.709 39.4153 169.709 39.4153C169.708 39.4153 169.707 39.4153 169.706 39.4153C169.706 39.4153 169.707 39.4153 169.706 39.4153C169.706 39.4153 169.704 39.4153 169.704 39.4153C169.704 39.4153 169.702 39.4153 169.702 39.4153C169.701 39.4153 169.7 39.4153 169.699 39.4153C169.699 39.4153 169.7 39.4153 169.699 39.4153C169.699 39.4153 169.697 39.4153 169.697 39.4153C169.697 39.4153 169.697 39.4153 169.697 39.4153C169.697 39.4153 169.695 39.4153 169.695 39.4153C169.695 39.4153 169.693 39.4153 169.693 39.4153C169.692 39.4153 169.691 39.4153 169.69 39.4153C169.69 39.4153 169.691 39.4153 169.69 39.4153C169.69 39.4153 169.688 39.4153 169.688 39.4153C169.688 39.4153 169.688 39.4153 169.688 39.4153C169.688 39.4153 169.686 39.4153 169.686 39.4153C169.686 39.4153 169.684 39.4153 169.683 39.4153C169.683 39.4153 169.681 39.4153 169.681 39.4153C169.681 39.4153 169.681 39.4153 169.681 39.4153C169.681 39.4153 169.679 39.4153 169.679 39.4153C169.679 39.4153 169.679 39.4153 169.679 39.4153C169.679 39.4153 169.677 39.4153 169.677 39.4153C169.676 39.4153 169.675 39.4153 169.674 39.4153C169.674 39.4153 169.672 39.4153 169.672 39.4153C169.672 39.4153 169.672 39.4153 169.672 39.4153C169.672 39.4153 169.67 39.4153 169.67 39.4153C169.67 39.4153 169.67 39.4153 169.67 39.4153C169.67 39.4153 169.668 39.4153 169.667 39.4153C169.667 39.4153 169.665 39.4153 169.665 39.4153C169.665 39.4153 169.663 39.4153 169.663 39.4153C169.663 39.4153 169.663 39.4153 169.663 39.4153C169.663 39.4153 169.661 39.4153 169.661 39.4153C169.661 39.4153 169.661 39.4153 169.661 39.4153C169.661 39.4153 169.659 39.4153 169.658 39.4153C169.658 39.4153 169.656 39.4153 169.656 39.4153C169.656 39.4153 169.654 39.4153 169.654 39.4153C169.654 39.4153 169.654 39.4153 169.654 39.4153C169.654 39.4153 169.652 39.4153 169.652 39.4153C169.651 39.4153 169.652 39.4153 169.652 39.4153C169.651 39.4153 169.649 39.4153 169.649 39.4153C169.649 39.4153 169.647 39.4153 169.647 39.4153C169.647 39.4153 169.645 39.4153 169.645 39.4153C169.645 39.4153 169.645 39.4153 169.645 39.4153C169.645 39.4153 169.643 39.4153 169.643 39.4153C169.642 39.4153 169.643 39.4153 169.643 39.4153C169.642 39.4153 169.64 39.4153 169.64 39.4153C169.64 39.4153 169.638 39.4153 169.638 39.4153C169.638 39.4153 169.636 39.4153 169.636 39.4153C169.635 39.4153 169.636 39.4153 169.636 39.4153C169.635 39.4153 169.634 39.4153 169.633 39.4153C169.633 39.4153 169.634 39.4153 169.633 39.4153C169.633 39.4153 169.631 39.4153 169.631 39.4153C169.631 39.4153 169.629 39.4153 169.629 39.4153C169.629 39.4153 169.627 39.4153 169.627 39.4153C169.626 39.4153 169.627 39.4153 169.627 39.4153C169.626 39.4153 169.625 39.4153 169.624 39.4153C169.624 39.4153 169.625 39.4153 169.624 39.4153C169.624 39.4153 169.622 39.4153 169.622 39.4153C169.622 39.4153 169.62 39.4153 169.62 39.4153C169.619 39.4153 169.618 39.4153 169.617 39.4153C169.617 39.4153 169.618 39.4153 169.617 39.4153C169.617 39.4153 169.615 39.4153 169.615 39.4153C169.615 39.4153 169.615 39.4153 169.615 39.4153C169.615 39.4153 169.613 39.4153 169.613 39.4153C169.613 39.4153 169.611 39.4153 169.611 39.4153C169.61 39.4153 169.609 39.4153 169.608 39.4153C169.608 39.4153 169.609 39.4153 169.608 39.4153C169.608 39.4153 169.606 39.4153 169.606 39.4153C169.606 39.4153 169.606 39.4153 169.606 39.4153C169.606 39.4153 169.604 39.4153 169.604 39.4153C169.603 39.4153 169.602 39.4153 169.601 39.4153C169.601 39.4153 169.599 39.4153 169.599 39.4153C169.599 39.4153 169.599 39.4153 169.599 39.4153C169.599 39.4153 169.597 39.4153 169.597 39.4153C169.597 39.4153 169.597 39.4153 169.597 39.4153C169.597 39.4153 169.595 39.4153 169.595 39.4153C169.594 39.4153 169.593 39.4153 169.592 39.4153C169.592 39.4153 169.59 39.4153 169.59 39.4153C169.59 39.4153 169.59 39.4153 169.59 39.4153C169.59 39.4153 169.588 39.4153 169.588 39.4153C169.588 39.4153 169.588 39.4153 169.588 39.4153C169.588 39.4153 169.586 39.4153 169.585 39.4153C169.585 39.4153 169.583 39.4153 169.583 39.4153C169.583 39.4153 169.581 39.4153 169.581 39.4153C169.581 39.4153 169.581 39.4153 169.581 39.4153C169.581 39.4153 169.579 39.4153 169.579 39.4153C169.579 39.4153 169.579 39.4153 169.579 39.4153C169.579 39.4153 169.577 39.4153 169.576 39.4153C169.576 39.4153 169.574 39.4153 169.574 39.4153C169.574 39.4153 169.572 39.4153 169.572 39.4153C169.572 39.4153 169.572 39.4153 169.572 39.4153C169.572 39.4153 169.57 39.4153 169.57 39.4153C169.569 39.4153 169.57 39.4153 169.57 39.4153C169.569 39.4153 169.567 39.4153 169.567 39.4153C169.567 39.4153 169.565 39.4153 169.565 39.4153C169.565 39.4153 169.563 39.4153 169.563 39.4153C169.563 39.4153 169.563 39.4153 169.563 39.4153C169.563 39.4153 169.561 39.4153 169.561 39.4153C169.56 39.4153 169.561 39.4153 169.561 39.4153C169.56 39.4153 169.558 39.4153 169.558 39.4153C169.558 39.4153 169.556 39.4153 169.556 39.4153C169.556 39.4153 169.554 39.4153 169.554 39.4153C169.553 39.4153 169.554 39.4153 169.554 39.4153C169.553 39.4153 169.552 39.4153 169.551 39.4153C169.551 39.4153 169.552 39.4153 169.551 39.4153C169.551 39.4153 169.549 39.4153 169.549 39.4153C169.549 39.4153 169.547 39.4153 169.547 39.4153C169.547 39.4153 169.545 39.4153 169.545 39.4153C169.544 39.4153 169.545 39.4153 169.545 39.4153C169.544 39.4153 169.543 39.4153 169.542 39.4153C169.542 39.4153 169.543 39.4153 169.542 39.4153C169.542 39.4153 169.54 39.4153 169.54 39.4153C169.54 39.4153 169.538 39.4153 169.538 39.4153C169.537 39.4153 169.536 39.4153 169.535 39.4153C169.535 39.4153 169.536 39.4153 169.535 39.4153C169.535 39.4153 169.533 39.4153 169.533 39.4153C169.533 39.4153 169.533 39.4153 169.533 39.4153C169.533 39.4153 169.531 39.4153 169.531 39.4153C169.531 39.4153 169.529 39.4153 169.529 39.4153C169.528 39.4153 169.527 39.4153 169.526 39.4153C169.526 39.4153 169.527 39.4153 169.526 39.4153C169.526 39.4153 169.524 39.4153 169.524 39.4153C169.524 39.4153 169.524 39.4153 169.524 39.4153C169.524 39.4153 169.522 39.4153 169.522 39.4153C169.521 39.4153 169.52 39.4153 169.519 39.4153C169.519 39.4153 169.517 39.4153 169.517 39.4153C169.517 39.4153 169.517 39.4153 169.517 39.4153C169.517 39.4153 169.515 39.4153 169.515 39.4153C169.515 39.4153 169.515 39.4153 169.515 39.4153C169.515 39.4153 169.513 39.4153 169.513 39.4153C169.512 39.4153 169.511 39.4153 169.51 39.4153C169.51 39.4153 169.508 39.4153 169.508 39.4153C169.508 39.4153 169.508 39.4153 169.508 39.4153C169.508 39.4153 169.506 39.4153 169.506 39.4153C169.506 39.4153 169.506 39.4153 169.506 39.4153C169.506 39.4153 169.504 39.4153 169.503 39.4153C169.503 39.4153 169.501 39.4153 169.501 39.4153C169.501 39.4153 169.499 39.4153 169.499 39.4153C169.499 39.4153 169.499 39.4153 169.499 39.4153C169.499 39.4153 169.497 39.4153 169.497 39.4153C169.497 39.4153 169.497 39.4153 169.497 39.4153C169.497 39.4153 169.495 39.4153 169.494 39.4153C169.494 39.4153 169.492 39.4153 169.492 39.4153C169.492 39.4153 169.49 39.4153 169.49 39.4153C169.49 39.4153 169.49 39.4153 169.49 39.4153C169.49 39.4153 169.488 39.4153 169.488 39.4153C169.487 39.4153 169.488 39.4153 169.488 39.4153C169.487 39.4153 169.485 39.4153 169.485 39.4153V41.3421ZM169.777 41.3421V43.2689C171.164 43.2689 172.393 43.4925 173.488 43.9142L174.248 42.1283L175.008 40.3423C173.382 39.7159 171.63 39.4153 169.777 39.4153V41.3421ZM174.248 42.1283L175.327 43.7587C175.821 43.4626 176.484 43.2689 177.407 43.2689V41.3421V39.4153C175.868 39.4153 174.424 39.7457 173.169 40.4978L174.248 42.1283ZM177.407 41.3421V43.2689C177.96 43.2689 178.377 43.3032 178.679 43.3545C178.992 43.4077 179.104 43.4663 179.102 43.4653L180.129 41.8046L181.156 40.1438C180.114 39.5608 178.742 39.4153 177.407 39.4153V41.3421ZM180.129 41.8046L178.119 41.572C177.828 43.8428 177.522 46.0825 177.199 48.291L179.205 48.5562L181.211 48.8213C181.537 46.5904 181.846 44.3291 182.139 42.0371L180.129 41.8046ZM179.205 48.5562L177.2 48.2874C176.876 50.4764 176.648 52.0395 176.518 52.9721L178.525 53.2268L180.532 53.4815C180.661 52.5644 180.887 51.0136 181.211 48.825L179.205 48.5562ZM178.525 53.2268L176.517 52.974C176.225 55.0756 176.062 56.6959 176.062 57.7587H178.087H180.112C180.112 56.9718 180.241 55.5708 180.532 53.4796L178.525 53.2268ZM178.087 57.7587H176.062C176.062 58.5811 176.226 59.5545 176.895 60.3497C177.633 61.227 178.677 61.5353 179.643 61.5353V59.6085V57.6816C179.591 57.6816 179.639 57.6737 179.741 57.7142C179.856 57.7597 179.971 57.8398 180.058 57.9423C180.136 58.036 180.149 58.0984 180.141 58.0714C180.133 58.041 180.112 57.9448 180.112 57.7587H178.087ZM179.643 59.6085V61.5353C181.364 61.5353 182.739 60.4769 183.763 59.3291L182.218 58.0824L180.674 56.8358C180.308 57.2466 180.021 57.4745 179.824 57.5913C179.636 57.7024 179.586 57.6816 179.643 57.6816V59.6085ZM182.218 58.0824L183.782 59.3073C184.945 57.9637 185.833 56.0386 186.544 53.7201L184.6 53.1806L182.656 52.641C182.006 54.7619 181.307 56.1047 180.655 56.8575L182.218 58.0824ZM184.6 53.1806L183.248 54.6153C183.97 55.2309 184.401 55.8575 184.629 56.4891L186.544 55.8627L188.459 55.2363C187.974 53.8948 187.109 52.7333 185.952 51.7458L184.6 53.1806ZM186.544 55.8627L184.607 55.3001C183.723 58.0572 182.621 59.6965 181.492 60.5518L182.753 62.0594L184.014 63.5669C186.06 62.0176 187.486 59.5258 188.481 56.4253L186.544 55.8627ZM182.753 62.0594L181.512 60.5368C180.175 61.5233 179.028 61.8898 178.039 61.8898V63.8167V65.7435C180.16 65.7435 182.156 64.9386 183.994 63.5822L182.753 62.0594ZM170.214 44.9491V43.0223C167.538 43.0223 165.286 44.0356 163.657 46.0343L165.257 47.2151L166.857 48.3959C167.691 47.3733 168.743 46.876 170.214 46.876V44.9491ZM165.257 47.2151L163.653 46.0388C162.108 47.9461 161.339 50.6007 161.099 53.7341L163.119 53.8742L165.138 54.0143C165.352 51.2285 166.009 49.4437 166.861 48.3914L165.257 47.2151ZM163.119 53.8742L161.106 53.6615C161.067 54.0004 161.045 54.3342 161.045 54.6604H163.07H165.095C165.095 54.4933 165.106 54.3029 165.131 54.0869L163.119 53.8742ZM163.07 54.6604H161.045C161.045 56.4646 161.492 58.1339 162.601 59.4647L164.188 58.2674L165.774 57.0701C165.393 56.6128 165.095 55.8773 165.095 54.6604H163.07ZM164.188 58.2674L162.628 59.4959C163.782 60.8233 165.338 61.5353 167.152 61.5353V59.6085V57.6816C166.569 57.6816 166.149 57.4995 165.748 57.0388L164.188 58.2674ZM167.152 59.6085V61.5353C170.463 61.5353 172.521 59.2 173.675 56.1446L171.769 55.4928L169.864 54.8409C168.945 57.2731 167.925 57.6816 167.152 57.6816V59.6085ZM171.769 55.4928L173.782 55.7055L174.948 45.7168L172.936 45.5041L170.923 45.2914L169.757 55.28L171.769 55.4928ZM172.936 45.5041L173.71 43.7237C172.564 43.2726 171.394 43.0223 170.214 43.0223V44.9491V46.876C170.784 46.876 171.428 46.9956 172.162 47.2845L172.936 45.5041ZM197.132 47.77L195.293 46.9625L194.623 48.3434L195.879 49.2841L197.132 47.77ZM190.425 62.0131L188.79 63.1511L188.805 63.1692L190.425 62.0131ZM189.015 55.9552L187.004 55.7355L187.003 55.7425L189.015 55.9552ZM190.716 41.8508L190.125 40.008L188.856 40.377L188.705 41.6311L190.716 41.8508ZM197.229 43.5156H195.204V48.7525L198.771 44.7644L197.229 43.5156ZM205.588 42.3132L204.286 43.7886L204.304 43.8035L204.323 43.8179L205.588 42.3132ZM205.54 47.4001L206.842 48.8754L206.848 48.871L205.54 47.4001ZM202.137 48.3712L200.145 48.0265L199.711 50.298H202.137V48.3712ZM196.305 51.0071L197.713 49.6217L194.799 46.9413L194.296 50.7682L196.305 51.0071ZM202.235 47.4001H204.26C204.26 46.4573 204.031 45.3914 203.217 44.5605C202.379 43.7038 201.256 43.4385 200.242 43.4385V45.3653V47.2922C200.398 47.2922 200.449 47.3128 200.432 47.3068C200.421 47.3032 200.395 47.2929 200.36 47.2716C200.324 47.2498 200.288 47.2215 200.255 47.1875C200.222 47.154 200.2 47.123 200.187 47.1005C200.174 47.0787 200.172 47.0702 200.176 47.0814C200.18 47.0931 200.188 47.1236 200.196 47.1775C200.204 47.2313 200.21 47.3045 200.21 47.4001H202.235ZM200.242 45.3653V43.4385C197.826 43.4385 196.237 45.0174 195.293 46.9625L197.132 47.77L198.97 48.5776C199.582 47.3164 200.066 47.2922 200.242 47.2922V45.3653ZM197.132 47.77L195.879 49.2841C199.048 51.657 200.355 54.0925 200.355 56.6026H202.38H204.406C204.406 52.5769 202.214 49.124 198.384 46.2559L197.132 47.77ZM202.38 56.6026H200.355C200.355 58.6163 199.775 59.8379 198.911 60.6023L200.291 62.0131L201.67 63.424C203.591 61.722 204.406 59.3366 204.406 56.6026H202.38ZM200.291 62.0131L198.911 60.6023C197.934 61.4673 196.695 61.9361 195.042 61.9361V63.8629V65.7897C197.6 65.7897 199.861 65.0254 201.67 63.424L200.291 62.0131ZM195.042 63.8629V61.9361C193.364 61.9361 192.524 61.4652 192.045 60.857L190.425 62.0131L188.805 63.1692C190.269 65.0275 192.508 65.7897 195.042 65.7897V63.8629ZM190.425 62.0131L192.059 60.8754C191.393 60.0087 190.992 58.8443 190.992 57.25H188.967H186.942C186.942 59.4786 187.513 61.4898 188.79 63.1511L190.425 62.0131ZM188.967 57.25H190.992C190.992 56.6758 191.009 56.3334 191.028 56.1679L189.015 55.9552L187.003 55.7425C186.957 56.1319 186.942 56.6527 186.942 57.25H188.967ZM189.015 55.9552L191.027 56.1749L192.728 42.0705L190.716 41.8508L188.705 41.6311L187.004 55.7355L189.015 55.9552ZM190.716 41.8508L191.308 43.6936C192.286 43.4092 193.269 43.2689 194.264 43.2689V41.3421V39.4153C192.861 39.4153 191.479 39.6141 190.125 40.008L190.716 41.8508ZM194.264 41.3421V43.2689C194.64 43.2689 194.904 43.3027 195.078 43.3433C195.25 43.3836 195.299 43.4223 195.285 43.4129C195.26 43.3954 195.221 43.3537 195.198 43.3061C195.18 43.2691 195.204 43.2923 195.204 43.4231H197.229H199.254C199.254 42.2472 198.802 41.0926 197.69 40.3118C196.693 39.6118 195.442 39.4153 194.264 39.4153V41.3421ZM197.229 43.4231H195.204V43.5156H197.229H199.254V43.4231H197.229ZM197.229 43.5156L198.771 44.7644C199.68 43.7478 200.768 43.2689 202.186 43.2689V41.3421V39.4153C199.587 39.4153 197.369 40.3855 195.687 42.2668L197.229 43.5156ZM202.186 41.3421V43.2689C203.346 43.2689 203.958 43.5264 204.286 43.7886L205.588 42.3132L206.89 40.8379C205.598 39.8053 203.942 39.4153 202.186 39.4153V41.3421ZM205.588 42.3132L204.323 43.8179C204.62 44.0433 204.778 44.3058 204.778 44.8104H206.803H208.828C208.828 43.2187 208.176 41.8163 206.854 40.8086L205.588 42.3132ZM206.803 44.8104H204.778C204.778 45.2908 204.62 45.6162 204.231 45.9291L205.54 47.4001L206.848 48.871C208.144 47.8274 208.828 46.4264 208.828 44.8104H206.803ZM205.54 47.4001L204.237 45.9247C203.877 46.212 203.308 46.4444 202.332 46.4444V48.3712V50.298C204.011 50.298 205.582 49.883 206.842 48.8754L205.54 47.4001ZM202.332 48.3712V46.4444C202.332 46.4444 202.332 46.4444 202.332 46.4444H202.33C202.329 46.4444 202.33 46.4444 202.33 46.4444C202.33 46.4444 202.327 46.4444 202.327 46.4444C202.327 46.4444 202.327 46.4444 202.327 46.4444C202.327 46.4444 202.325 46.4444 202.325 46.4444C202.325 46.4444 202.325 46.4444 202.325 46.4444C202.325 46.4444 202.323 46.4444 202.323 46.4444C202.322 46.4444 202.323 46.4444 202.323 46.4444H202.32C202.32 46.4444 202.321 46.4444 202.32 46.4444C202.32 46.4444 202.318 46.4444 202.318 46.4444C202.318 46.4444 202.318 46.4444 202.318 46.4444C202.318 46.4444 202.316 46.4444 202.316 46.4444C202.316 46.4444 202.316 46.4444 202.316 46.4444C202.316 46.4444 202.314 46.4444 202.314 46.4444C202.313 46.4444 202.314 46.4444 202.314 46.4444H202.311C202.311 46.4444 202.311 46.4444 202.311 46.4444C202.311 46.4444 202.309 46.4444 202.309 46.4444C202.309 46.4444 202.309 46.4444 202.309 46.4444C202.309 46.4444 202.307 46.4444 202.307 46.4444C202.306 46.4444 202.307 46.4444 202.307 46.4444C202.306 46.4444 202.304 46.4444 202.304 46.4444C202.304 46.4444 202.305 46.4444 202.304 46.4444H202.302C202.302 46.4444 202.302 46.4444 202.302 46.4444C202.302 46.4444 202.3 46.4444 202.3 46.4444C202.3 46.4444 202.3 46.4444 202.3 46.4444C202.3 46.4444 202.298 46.4444 202.298 46.4444C202.297 46.4444 202.298 46.4444 202.298 46.4444C202.297 46.4444 202.295 46.4444 202.295 46.4444C202.295 46.4444 202.296 46.4444 202.295 46.4444H202.293C202.293 46.4444 202.293 46.4444 202.293 46.4444C202.293 46.4444 202.291 46.4444 202.291 46.4444C202.29 46.4444 202.291 46.4444 202.291 46.4444C202.29 46.4444 202.289 46.4444 202.288 46.4444C202.288 46.4444 202.289 46.4444 202.288 46.4444C202.288 46.4444 202.286 46.4444 202.286 46.4444C202.286 46.4444 202.286 46.4444 202.286 46.4444H202.284C202.284 46.4444 202.284 46.4444 202.284 46.4444C202.284 46.4444 202.282 46.4444 202.282 46.4444C202.281 46.4444 202.282 46.4444 202.282 46.4444C202.281 46.4444 202.28 46.4444 202.279 46.4444C202.279 46.4444 202.28 46.4444 202.279 46.4444C202.279 46.4444 202.277 46.4444 202.277 46.4444C202.277 46.4444 202.277 46.4444 202.277 46.4444H202.275C202.275 46.4444 202.275 46.4444 202.275 46.4444C202.275 46.4444 202.273 46.4444 202.272 46.4444C202.272 46.4444 202.273 46.4444 202.272 46.4444C202.272 46.4444 202.27 46.4444 202.27 46.4444C202.27 46.4444 202.27 46.4444 202.27 46.4444C202.27 46.4444 202.268 46.4444 202.268 46.4444C202.268 46.4444 202.268 46.4444 202.268 46.4444H202.266C202.266 46.4444 202.266 46.4444 202.266 46.4444C202.266 46.4444 202.264 46.4444 202.263 46.4444C202.263 46.4444 202.264 46.4444 202.263 46.4444C202.263 46.4444 202.261 46.4444 202.261 46.4444C202.261 46.4444 202.261 46.4444 202.261 46.4444C202.261 46.4444 202.259 46.4444 202.259 46.4444C202.259 46.4444 202.259 46.4444 202.259 46.4444H202.257C202.256 46.4444 202.257 46.4444 202.257 46.4444C202.257 46.4444 202.254 46.4444 202.254 46.4444C202.254 46.4444 202.254 46.4444 202.254 46.4444C202.254 46.4444 202.252 46.4444 202.252 46.4444C202.252 46.4444 202.252 46.4444 202.252 46.4444C202.252 46.4444 202.25 46.4444 202.25 46.4444C202.25 46.4444 202.25 46.4444 202.25 46.4444C202.25 46.4444 202.248 46.4444 202.248 46.4444C202.247 46.4444 202.246 46.4444 202.245 46.4444C202.245 46.4444 202.243 46.4444 202.243 46.4444C202.243 46.4444 202.241 46.4444 202.241 46.4444C202.241 46.4444 202.241 46.4444 202.241 46.4444C202.241 46.4444 202.239 46.4444 202.239 46.4444C202.238 46.4444 202.237 46.4444 202.236 46.4444C202.236 46.4444 202.234 46.4444 202.234 46.4444C202.234 46.4444 202.232 46.4444 202.232 46.4444C202.232 46.4444 202.232 46.4444 202.232 46.4444C202.232 46.4444 202.23 46.4444 202.229 46.4444C202.229 46.4444 202.227 46.4444 202.227 46.4444C202.227 46.4444 202.225 46.4444 202.225 46.4444C202.225 46.4444 202.223 46.4444 202.223 46.4444C202.223 46.4444 202.223 46.4444 202.223 46.4444C202.223 46.4444 202.221 46.4444 202.22 46.4444C202.22 46.4444 202.218 46.4444 202.218 46.4444C202.218 46.4444 202.216 46.4444 202.216 46.4444C202.216 46.4444 202.214 46.4444 202.214 46.4444C202.213 46.4444 202.214 46.4444 202.214 46.4444C202.214 46.4444 202.211 46.4444 202.211 46.4444C202.211 46.4444 202.209 46.4444 202.209 46.4444C202.209 46.4444 202.207 46.4444 202.207 46.4444C202.207 46.4444 202.205 46.4444 202.205 46.4444C202.204 46.4444 202.205 46.4444 202.205 46.4444C202.205 46.4444 202.202 46.4444 202.202 46.4444C202.202 46.4444 202.2 46.4444 202.2 46.4444C202.2 46.4444 202.198 46.4444 202.198 46.4444C202.197 46.4444 202.195 46.4444 202.195 46.4444C202.195 46.4444 202.196 46.4444 202.195 46.4444C202.195 46.4444 202.193 46.4444 202.193 46.4444C202.193 46.4444 202.191 46.4444 202.191 46.4444C202.191 46.4444 202.189 46.4444 202.189 46.4444C202.188 46.4444 202.186 46.4444 202.186 46.4444C202.186 46.4444 202.187 46.4444 202.186 46.4444C202.186 46.4444 202.184 46.4444 202.184 46.4444C202.184 46.4444 202.182 46.4444 202.182 46.4444C202.181 46.4444 202.18 46.4444 202.179 46.4444C202.179 46.4444 202.177 46.4444 202.177 46.4444C202.177 46.4444 202.177 46.4444 202.177 46.4444C202.177 46.4444 202.175 46.4444 202.175 46.4444C202.175 46.4444 202.173 46.4444 202.173 46.4444C202.172 46.4444 202.171 46.4444 202.17 46.4444C202.17 46.4444 202.168 46.4444 202.168 46.4444C202.168 46.4444 202.168 46.4444 202.168 46.4444C202.168 46.4444 202.166 46.4444 202.166 46.4444C202.165 46.4444 202.164 46.4444 202.163 46.4444C202.163 46.4444 202.161 46.4444 202.161 46.4444C202.161 46.4444 202.159 46.4444 202.159 46.4444C202.159 46.4444 202.159 46.4444 202.159 46.4444C202.159 46.4444 202.157 46.4444 202.157 46.4444C202.156 46.4444 202.155 46.4444 202.154 46.4444C202.154 46.4444 202.152 46.4444 202.152 46.4444C202.152 46.4444 202.15 46.4444 202.15 46.4444C202.15 46.4444 202.15 46.4444 202.15 46.4444C202.15 46.4444 202.148 46.4444 202.147 46.4444C202.147 46.4444 202.145 46.4444 202.145 46.4444C202.145 46.4444 202.143 46.4444 202.143 46.4444C202.143 46.4444 202.141 46.4444 202.141 46.4444C202.141 46.4444 202.141 46.4444 202.141 46.4444C202.141 46.4444 202.139 46.4444 202.138 46.4444L202.137 48.3712V50.298C202.138 50.298 202.139 50.298 202.14 50.298C202.14 50.298 202.142 50.298 202.142 50.298C202.142 50.298 202.142 50.298 202.142 50.298C202.142 50.298 202.144 50.298 202.144 50.298C202.144 50.298 202.146 50.298 202.146 50.298C202.147 50.298 202.148 50.298 202.149 50.298C202.149 50.298 202.151 50.298 202.151 50.298C202.151 50.298 202.151 50.298 202.151 50.298C202.151 50.298 202.153 50.298 202.153 50.298C202.154 50.298 202.155 50.298 202.156 50.298C202.156 50.298 202.158 50.298 202.158 50.298C202.158 50.298 202.16 50.298 202.16 50.298C202.16 50.298 202.16 50.298 202.16 50.298C202.16 50.298 202.162 50.298 202.162 50.298C202.163 50.298 202.164 50.298 202.165 50.298C202.165 50.298 202.167 50.298 202.167 50.298C202.167 50.298 202.169 50.298 202.169 50.298C202.169 50.298 202.169 50.298 202.169 50.298C202.169 50.298 202.171 50.298 202.172 50.298C202.172 50.298 202.174 50.298 202.174 50.298C202.174 50.298 202.176 50.298 202.176 50.298C202.176 50.298 202.178 50.298 202.178 50.298C202.178 50.298 202.178 50.298 202.178 50.298C202.178 50.298 202.18 50.298 202.181 50.298C202.181 50.298 202.183 50.298 202.183 50.298C202.183 50.298 202.185 50.298 202.185 50.298C202.185 50.298 202.187 50.298 202.187 50.298C202.187 50.298 202.188 50.298 202.187 50.298C202.187 50.298 202.189 50.298 202.189 50.298C202.189 50.298 202.19 50.298 202.189 50.298C202.19 50.298 202.191 50.298 202.192 50.298C202.191 50.298 202.192 50.298 202.192 50.298C202.192 50.298 202.194 50.298 202.194 50.298C202.194 50.298 202.194 50.298 202.194 50.298H202.196C202.196 50.298 202.196 50.298 202.196 50.298C202.196 50.298 202.198 50.298 202.198 50.298C202.198 50.298 202.199 50.298 202.198 50.298C202.199 50.298 202.201 50.298 202.201 50.298C202.201 50.298 202.201 50.298 202.201 50.298C202.201 50.298 202.203 50.298 202.203 50.298C202.203 50.298 202.203 50.298 202.203 50.298H202.205C202.205 50.298 202.205 50.298 202.205 50.298C202.205 50.298 202.207 50.298 202.208 50.298C202.207 50.298 202.208 50.298 202.208 50.298C202.208 50.298 202.21 50.298 202.21 50.298C202.21 50.298 202.21 50.298 202.21 50.298C202.21 50.298 202.212 50.298 202.212 50.298C202.212 50.298 202.212 50.298 202.212 50.298H202.214C202.214 50.298 202.215 50.298 202.214 50.298C202.214 50.298 202.217 50.298 202.217 50.298C202.217 50.298 202.217 50.298 202.217 50.298C202.217 50.298 202.219 50.298 202.219 50.298C202.219 50.298 202.219 50.298 202.219 50.298C202.219 50.298 202.221 50.298 202.221 50.298C202.221 50.298 202.221 50.298 202.221 50.298H202.223C202.223 50.298 202.224 50.298 202.223 50.298C202.223 50.298 202.226 50.298 202.226 50.298C202.226 50.298 202.226 50.298 202.226 50.298C202.226 50.298 202.228 50.298 202.228 50.298C202.228 50.298 202.228 50.298 202.228 50.298C202.228 50.298 202.23 50.298 202.23 50.298C202.23 50.298 202.23 50.298 202.23 50.298H202.233C202.232 50.298 202.233 50.298 202.233 50.298C202.233 50.298 202.235 50.298 202.235 50.298C202.235 50.298 202.235 50.298 202.235 50.298C202.235 50.298 202.237 50.298 202.237 50.298C202.237 50.298 202.237 50.298 202.237 50.298C202.237 50.298 202.239 50.298 202.239 50.298C202.239 50.298 202.24 50.298 202.239 50.298H202.242C202.241 50.298 202.242 50.298 202.242 50.298C202.242 50.298 202.244 50.298 202.244 50.298C202.244 50.298 202.244 50.298 202.244 50.298C202.244 50.298 202.246 50.298 202.246 50.298C202.246 50.298 202.246 50.298 202.246 50.298C202.246 50.298 202.249 50.298 202.249 50.298C202.248 50.298 202.249 50.298 202.249 50.298H202.251C202.251 50.298 202.251 50.298 202.251 50.298C202.251 50.298 202.253 50.298 202.253 50.298C202.253 50.298 202.253 50.298 202.253 50.298C202.253 50.298 202.255 50.298 202.255 50.298C202.255 50.298 202.256 50.298 202.255 50.298C202.256 50.298 202.258 50.298 202.258 50.298C202.257 50.298 202.258 50.298 202.258 50.298H202.26C202.26 50.298 202.26 50.298 202.26 50.298C202.26 50.298 202.262 50.298 202.262 50.298C202.262 50.298 202.262 50.298 202.262 50.298C202.262 50.298 202.264 50.298 202.265 50.298C202.264 50.298 202.265 50.298 202.265 50.298C202.265 50.298 202.267 50.298 202.267 50.298C202.267 50.298 202.267 50.298 202.267 50.298H202.269C202.269 50.298 202.269 50.298 202.269 50.298C202.269 50.298 202.271 50.298 202.271 50.298C202.271 50.298 202.272 50.298 202.271 50.298C202.272 50.298 202.273 50.298 202.274 50.298C202.273 50.298 202.274 50.298 202.274 50.298C202.274 50.298 202.276 50.298 202.276 50.298C202.276 50.298 202.276 50.298 202.276 50.298H202.278C202.278 50.298 202.278 50.298 202.278 50.298C202.278 50.298 202.28 50.298 202.281 50.298C202.28 50.298 202.281 50.298 202.281 50.298C202.281 50.298 202.283 50.298 202.283 50.298C202.283 50.298 202.283 50.298 202.283 50.298C202.283 50.298 202.285 50.298 202.285 50.298C202.285 50.298 202.285 50.298 202.285 50.298H202.287C202.287 50.298 202.287 50.298 202.287 50.298C202.287 50.298 202.289 50.298 202.29 50.298C202.289 50.298 202.29 50.298 202.29 50.298C202.29 50.298 202.292 50.298 202.292 50.298C202.292 50.298 202.292 50.298 202.292 50.298C202.292 50.298 202.294 50.298 202.294 50.298C202.294 50.298 202.294 50.298 202.294 50.298H202.296C202.296 50.298 202.297 50.298 202.296 50.298C202.296 50.298 202.299 50.298 202.299 50.298C202.299 50.298 202.299 50.298 202.299 50.298C202.299 50.298 202.301 50.298 202.301 50.298C202.301 50.298 202.301 50.298 202.301 50.298C202.301 50.298 202.303 50.298 202.303 50.298C202.303 50.298 202.303 50.298 202.303 50.298H202.305C202.305 50.298 202.306 50.298 202.305 50.298C202.305 50.298 202.308 50.298 202.308 50.298C202.308 50.298 202.308 50.298 202.308 50.298C202.308 50.298 202.31 50.298 202.31 50.298C202.31 50.298 202.31 50.298 202.31 50.298C202.31 50.298 202.312 50.298 202.312 50.298C202.312 50.298 202.313 50.298 202.312 50.298H202.315C202.314 50.298 202.315 50.298 202.315 50.298C202.315 50.298 202.317 50.298 202.317 50.298C202.317 50.298 202.317 50.298 202.317 50.298C202.317 50.298 202.319 50.298 202.319 50.298C202.319 50.298 202.319 50.298 202.319 50.298C202.319 50.298 202.321 50.298 202.321 50.298C202.321 50.298 202.322 50.298 202.321 50.298C202.321 50.298 202.323 50.298 202.323 50.298C202.324 50.298 202.325 50.298 202.326 50.298C202.326 50.298 202.328 50.298 202.328 50.298C202.328 50.298 202.332 50.298 202.332 50.298C202.332 50.298 202.332 50.298 202.332 50.298V48.3712ZM202.137 48.3712L204.13 48.7159C204.213 48.2762 204.26 47.8365 204.26 47.4001H202.235H200.21C200.21 47.5802 200.191 47.7879 200.145 48.0265L202.137 48.3712ZM199.221 56.3714H201.246C201.246 53.8677 199.876 51.6119 197.713 49.6217L196.305 51.0071L194.898 52.3925C196.622 53.9785 197.196 55.2989 197.196 56.3714H199.221ZM196.305 51.0071L194.296 50.7682C194.004 52.9879 193.785 54.6573 193.64 55.7756C193.567 56.3346 193.512 56.7569 193.475 57.0419C193.457 57.1839 193.443 57.2936 193.433 57.3695C193.429 57.4069 193.425 57.4392 193.422 57.4641C193.42 57.4758 193.419 57.4909 193.417 57.5059C193.416 57.5128 193.415 57.5263 193.413 57.5425C193.413 57.5502 193.411 57.5651 193.41 57.5836C193.41 57.5905 193.406 57.6444 193.406 57.7125H195.431H197.456C197.456 57.7799 197.451 57.8331 197.451 57.8391C197.45 57.8566 197.449 57.8701 197.448 57.8762C197.447 57.8893 197.446 57.8986 197.446 57.9003C197.445 57.9048 197.445 57.905 197.446 57.8976C197.448 57.8841 197.45 57.861 197.455 57.8256C197.464 57.756 197.477 57.6514 197.495 57.5101C197.531 57.2286 197.586 56.809 197.659 56.2504C197.804 55.1336 198.023 53.4657 198.315 51.246L196.305 51.0071ZM195.431 57.7125H193.406C193.406 58.5697 193.579 59.5701 194.27 60.3815C195.026 61.2707 196.093 61.5815 197.083 61.5815V59.6547V57.7279C197.012 57.7279 197.043 57.7173 197.131 57.7516C197.176 57.7691 197.228 57.7957 197.282 57.8337C197.336 57.8716 197.381 57.9142 197.417 57.9568C197.49 58.0425 197.499 58.0963 197.489 58.0603C197.477 58.0202 197.456 57.9125 197.456 57.7125H195.431ZM197.083 59.6547V61.5815C198.451 61.5815 199.659 60.9989 200.408 59.8489C201.058 58.8512 201.246 57.6022 201.246 56.3714H199.221H197.196C197.196 56.825 197.159 57.1679 197.105 57.418C197.05 57.6705 196.987 57.7857 196.965 57.8188C196.952 57.8392 196.979 57.7934 197.059 57.7525C197.134 57.7142 197.163 57.7279 197.083 57.7279V59.6547ZM221.825 53.2268L221.409 51.341L219.374 51.747L219.856 53.6717L221.825 53.2268ZM226.296 50.9146L224.745 49.6772L224.735 49.689L224.724 49.7011L226.296 50.9146ZM226.879 45.4578L225.694 47.0199L225.745 47.055L225.8 47.087L226.879 45.4578ZM220.901 47.3076L219.227 46.2249L219.222 46.2316L220.901 47.3076ZM220.853 58.0824L219.38 59.4054L219.401 59.4254L219.421 59.4449L220.853 58.0824ZM237.474 51.0071L238.873 49.6132L236.909 47.8298L235.672 50.129L237.474 51.0071ZM239.418 53.4118L241.273 54.1877L241.688 53.2914L241.169 52.4443L239.418 53.4118ZM233.732 60.2096L235.03 61.69L235.05 61.6727L233.732 60.2096ZM228.872 62.8455L228.155 61.0439L228.143 61.048L228.872 62.8455ZM215.458 61.042L213.984 62.3613L213.992 62.3698L215.458 61.042ZM216.187 44.9029L214.765 43.5316L214.755 43.5404L216.187 44.9029ZM231.302 42.9144L230.131 44.4869L230.155 44.5021L231.302 42.9144ZM233.683 47.0764H235.708V47.0594V47.0426L233.683 47.0764ZM230.67 52.8569L229.431 51.3333L229.418 51.3426L230.67 52.8569ZM222.505 55.9552L220.537 56.4001L220.978 58.1705L222.859 57.8523L222.505 55.9552ZM221.825 53.2268L222.242 55.1126C224.554 54.6511 226.521 53.7118 227.869 52.1281L226.296 50.9146L224.724 49.7011C224.129 50.3988 223.115 51.0009 221.409 51.341L221.825 53.2268ZM226.296 50.9146L227.849 52.152C229.034 50.8079 229.827 49.2891 229.827 47.6313H227.802H225.777C225.777 48.0698 225.569 48.74 224.745 49.6772L226.296 50.9146ZM227.802 47.6313H229.827C229.827 46.279 229.441 44.7183 227.96 43.8287L226.879 45.4578L225.8 47.087C225.761 47.0642 225.729 47.0351 225.704 47.008C225.684 46.9825 225.684 46.9744 225.694 47.0008C225.723 47.0642 225.777 47.2513 225.777 47.6313H227.802ZM226.879 45.4578L228.066 43.8957C227.14 43.2603 226.079 42.9298 224.935 42.9298V44.8567V46.7835C225.219 46.7835 225.453 46.8538 225.694 47.0199L226.879 45.4578ZM224.935 44.8567V42.9298C222.513 42.9298 220.62 44.273 219.227 46.2249L220.901 47.3076L222.578 48.3903C223.518 47.0742 224.313 46.7835 224.935 46.7835V44.8567ZM220.901 47.3076L219.222 46.2316C217.827 48.2026 217.175 50.5188 217.175 53.0881H219.2H221.225C221.225 51.1562 221.709 49.6188 222.582 48.3835L220.901 47.3076ZM219.2 53.0881H217.175C217.175 55.5781 217.793 57.804 219.38 59.4054L220.853 58.0824L222.327 56.7595C221.711 56.1411 221.225 55.0374 221.225 53.0881H219.2ZM220.853 58.0824L219.421 59.4449C220.948 60.8973 222.861 61.6278 225.032 61.6278V59.701V57.7741C223.9 57.7741 223.027 57.4256 222.286 56.72L220.853 58.0824ZM225.032 59.701V61.6278C227.968 61.6278 230.718 60.6501 233.25 58.835L232.031 57.2963L230.814 55.7575C228.874 57.1487 226.958 57.7741 225.032 57.7741V59.701ZM232.031 57.2963L233.25 58.835C235.753 57.0408 237.757 54.7099 239.278 51.8852L237.474 51.0071L235.672 50.129C234.406 52.4836 232.782 54.3455 230.814 55.7575L232.031 57.2963ZM237.474 51.0071L236.077 52.401C236.629 52.9027 237.164 53.5536 237.668 54.3792L239.418 53.4118L241.169 52.4443C240.507 51.3585 239.746 50.4063 238.873 49.6132L237.474 51.0071ZM239.418 53.4118L237.565 52.6358C236.654 54.608 234.983 56.6523 232.415 58.7466L233.732 60.2096L235.05 61.6727C237.925 59.3275 240.046 56.84 241.273 54.1877L239.418 53.4118ZM233.732 60.2096L232.436 58.7294C231.269 59.6545 229.852 60.4314 228.155 61.0439L228.872 62.8455L229.59 64.6471C231.652 63.9032 233.474 62.923 235.03 61.69L233.732 60.2096ZM228.872 62.8455L228.143 61.048C226.529 61.6409 224.864 61.9361 223.137 61.9361V63.8629V65.7897C225.364 65.7897 227.523 65.4067 229.603 64.6431L228.872 62.8455ZM223.137 63.8629V61.9361C220.34 61.9361 218.352 61.1409 216.926 59.7142L215.458 61.042L213.992 62.3698C216.325 64.7043 219.455 65.7897 223.137 65.7897V63.8629ZM215.458 61.042L216.934 59.7227C215.328 58.0949 214.47 55.9847 214.47 53.2268H212.445H210.42C210.42 56.8198 211.572 59.9196 213.984 62.3613L215.458 61.042ZM212.445 53.2268H214.47C214.47 50.594 215.48 48.3009 217.621 46.2654L216.187 44.9029L214.755 43.5404C211.906 46.2526 210.42 49.5088 210.42 53.2268H212.445ZM216.187 44.9029L217.611 46.2742C219.765 44.2503 222.27 43.2689 225.227 43.2689V41.3421V39.4153C221.187 39.4153 217.665 40.8078 214.765 43.5316L216.187 44.9029ZM225.227 41.3421V43.2689C227.432 43.2689 229.011 43.7312 230.131 44.4869L231.302 42.9144L232.474 41.3421C230.484 40.0014 228.013 39.4153 225.227 39.4153V41.3421ZM231.302 42.9144L230.155 44.5021C231.186 45.1759 231.638 45.9914 231.66 47.1101L233.683 47.0764L235.708 47.0426C235.665 44.6468 234.529 42.6876 232.45 41.3267L231.302 42.9144ZM233.683 47.0764H231.658C231.658 48.8413 230.955 50.2105 229.431 51.3333L230.67 52.8569L231.911 54.3804C234.404 52.5436 235.708 50.0591 235.708 47.0764H233.683ZM230.67 52.8569L229.418 51.3426C227.788 52.5638 225.415 53.5068 222.153 54.058L222.505 55.9552L222.859 57.8523C226.531 57.2321 229.601 56.1095 231.923 54.3711L230.67 52.8569ZM222.505 55.9552L224.475 55.5103L223.795 52.7819L221.825 53.2268L219.856 53.6717L220.537 56.4001L222.505 55.9552Z" fill="white"/>
</g>
</svg>
